<svg id="svg" version="1.1" xmlns="http://www.w3.org/2000/svg" xmlns:xlink="http://www.w3.org/1999/xlink" width="400" height="300" viewBox="0, 0, 400,300"><g id="svgg"><path id="path0" d="M191.448 92.100 L 189.497 92.273 189.497 100.675 L 189.497 109.077 198.800 109.077 L 208.102 109.077 208.182 100.450 L 208.261 91.823 200.830 91.875 C 196.743 91.903,192.521 92.005,191.448 92.100 M189.552 120.826 C 189.439 120.938,189.347 144.765,189.347 173.774 L 189.347 226.519 190.636 228.413 C 191.344 229.455,192.202 230.848,192.542 231.508 C 192.882 232.168,194.092 234.113,195.230 235.829 C 196.368 237.546,197.635 239.470,198.046 240.105 C 199.016 241.605,199.014 241.606,200.451 239.235 C 201.127 238.121,202.585 235.754,203.691 233.976 C 204.797 232.198,206.265 229.834,206.954 228.725 L 208.207 226.707 208.154 173.743 L 208.102 120.780 198.929 120.701 C 193.884 120.657,189.664 120.714,189.552 120.826 M209.575 133.683 C 209.575 136.489,209.620 137.677,209.675 136.324 C 209.731 134.970,209.731 132.675,209.676 131.223 C 209.621 129.770,209.575 130.878,209.575 133.683 " stroke="none" fill="#3bc2eb" fill-rule="evenodd"></path><path id="path1" d="M168.734 60.507 C 169.008 60.781,171.343 60.810,171.343 60.540 C 171.343 60.416,170.713 60.315,169.942 60.315 C 169.172 60.315,168.628 60.401,168.734 60.507 M178.020 60.522 C 178.308 60.597,178.781 60.597,179.070 60.522 C 179.359 60.446,179.122 60.385,178.545 60.385 C 177.967 60.385,177.731 60.446,178.020 60.522 M226.118 60.596 C 226.018 60.758,226.296 60.814,226.769 60.728 C 227.879 60.527,228.036 60.315,227.074 60.315 C 226.644 60.315,226.214 60.442,226.118 60.596 M235.081 60.570 C 235.256 60.853,237.274 60.801,237.570 60.505 C 237.674 60.400,237.121 60.315,236.341 60.315 C 235.561 60.315,234.994 60.430,235.081 60.570 M211.661 67.517 C 211.661 69.085,211.712 69.726,211.773 68.942 C 211.835 68.158,211.835 66.875,211.773 66.092 C 211.712 65.308,211.661 65.949,211.661 67.517 M223.932 65.866 C 223.935 66.527,223.996 66.761,224.068 66.388 C 224.140 66.015,224.137 65.475,224.062 65.188 C 223.987 64.901,223.928 65.206,223.932 65.866 M189.347 70.845 C 188.849 71.252,188.799 71.354,189.197 71.148 C 190.176 70.642,190.719 70.227,190.398 70.229 C 190.233 70.230,189.760 70.507,189.347 70.845 M172.344 78.620 C 172.344 79.857,172.397 80.364,172.462 79.745 C 172.526 79.126,172.526 78.113,172.462 77.494 C 172.397 76.875,172.344 77.382,172.344 78.620 M189.047 90.462 C 189.047 90.715,188.912 90.923,188.747 90.923 C 188.166 90.923,188.357 109.679,188.943 110.166 C 189.651 110.753,208.326 110.774,208.912 110.188 C 209.372 109.728,209.665 92.877,209.241 91.242 L 208.990 90.272 199.019 90.137 C 190.196 90.017,189.047 90.055,189.047 90.462 M179.144 94.763 L 179.292 98.875 179.378 94.998 C 179.425 92.866,179.358 91.016,179.229 90.886 C 179.100 90.757,179.062 92.501,179.144 94.763 M208.518 91.051 C 208.772 91.208,208.788 91.389,208.571 91.650 C 208.379 91.882,208.231 95.246,208.182 100.550 L 208.102 109.077 198.800 109.077 L 189.497 109.077 189.497 100.600 C 189.497 95.938,189.396 92.123,189.272 92.123 C 189.149 92.123,189.047 91.856,189.047 91.529 C 189.047 90.771,207.338 90.322,208.518 91.051 M179.291 150.488 C 179.291 177.884,179.327 189.137,179.370 175.493 C 179.413 161.848,179.413 139.433,179.370 125.680 C 179.327 111.927,179.291 123.091,179.291 150.488 M188.760 120.006 C 188.546 120.405,188.447 137.525,188.447 174.014 L 188.447 227.438 189.695 229.323 C 190.381 230.360,191.191 231.574,191.495 232.021 C 191.799 232.468,192.048 232.989,192.048 233.178 C 192.048 233.495,192.864 234.654,193.988 235.934 C 194.241 236.223,194.450 236.628,194.453 236.834 C 194.455 237.041,194.759 237.591,195.128 238.058 C 195.497 238.525,196.084 239.267,196.433 239.708 C 196.782 240.149,197.169 240.848,197.294 241.260 C 197.669 242.504,198.338 243.088,198.988 242.740 C 199.297 242.575,199.550 242.531,199.550 242.642 C 199.550 242.972,200.904 240.877,201.368 239.828 C 201.604 239.296,201.879 238.860,201.979 238.860 C 202.265 238.860,204.051 235.868,204.051 235.389 C 204.051 235.152,204.188 234.959,204.356 234.959 C 204.524 234.959,204.895 234.452,205.181 233.833 C 205.467 233.215,205.870 232.600,206.077 232.468 C 206.283 232.336,206.452 232.099,206.452 231.940 C 206.452 231.782,206.857 231.093,207.352 230.410 C 207.847 229.726,208.252 229.034,208.252 228.870 C 208.252 228.707,208.488 228.401,208.777 228.189 C 209.352 227.769,209.779 122.727,209.215 120.547 L 208.964 119.580 199.018 119.501 C 189.426 119.425,189.062 119.443,188.760 120.006 M208.178 157.764 C 208.228 182.072,208.357 194.749,208.553 194.749 C 208.961 194.749,208.959 207.850,208.552 208.102 C 208.363 208.219,208.252 211.684,208.252 217.505 L 208.252 226.722 206.909 228.815 C 205.557 230.920,202.902 235.206,200.512 239.139 C 199.008 241.614,199.019 241.610,198.046 240.105 C 197.635 239.470,196.368 237.546,195.230 235.829 C 194.092 234.113,192.882 232.168,192.542 231.508 C 192.202 230.848,191.344 229.455,190.636 228.413 L 189.347 226.519 189.347 173.774 C 189.347 144.765,189.439 120.938,189.552 120.826 C 189.664 120.714,193.884 120.657,198.929 120.701 L 208.102 120.780 208.178 157.764 " stroke="none" fill="#2e8ab1" fill-rule="evenodd"></path><path id="path2" d="M168.168 61.867 C 165.455 62.570,164.327 66.324,166.048 68.927 C 166.848 70.138,169.708 70.887,171.268 70.296 C 172.088 69.985,171.570 69.617,170.312 69.617 C 168.470 69.617,167.544 69.199,166.843 68.049 C 165.281 65.488,167.061 62.416,170.107 62.416 C 171.667 62.416,172.199 61.955,170.968 61.671 C 170.180 61.490,169.418 61.543,168.168 61.867 M228.777 65.866 C 228.778 68.342,228.824 69.315,228.880 68.028 C 228.937 66.742,228.937 64.716,228.880 63.527 C 228.823 62.338,228.777 63.391,228.777 65.866 M235.018 61.734 C 231.647 62.149,230.072 66.886,232.559 69.132 C 233.220 69.729,233.929 70.233,234.134 70.252 C 234.340 70.271,234.914 70.338,235.409 70.402 C 236.531 70.547,237.659 70.301,237.659 69.912 C 237.659 69.750,237.014 69.617,236.226 69.617 C 234.507 69.617,233.609 69.058,233.004 67.610 C 231.912 64.998,233.662 62.334,236.469 62.334 C 237.124 62.334,237.659 62.232,237.659 62.107 C 237.659 61.834,236.850 61.496,236.360 61.563 C 236.167 61.590,235.563 61.666,235.018 61.734 M160.388 62.791 C 159.989 64.969,160.352 70.053,160.915 70.161 C 161.395 70.253,161.440 69.899,161.440 66.039 C 161.440 62.543,161.365 61.815,161.004 61.815 C 160.748 61.815,160.493 62.219,160.388 62.791 M175.433 62.341 C 175.176 63.237,175.251 69.444,175.525 69.887 C 175.868 70.443,179.477 70.535,179.665 69.992 C 179.751 69.744,179.475 69.617,178.850 69.617 C 177.375 69.617,176.744 69.138,176.744 68.016 C 176.744 66.779,177.205 66.317,178.437 66.317 C 179.446 66.317,180.195 65.734,179.238 65.693 C 177.128 65.604,176.698 65.279,176.802 63.850 C 176.893 62.602,176.918 62.575,178.211 62.356 C 180.238 62.012,180.058 61.815,177.715 61.815 C 175.943 61.815,175.559 61.904,175.433 62.341 M182.864 65.866 C 182.865 68.177,182.912 69.083,182.969 67.879 C 183.026 66.675,183.025 64.785,182.968 63.678 C 182.910 62.571,182.864 63.556,182.864 65.866 M183.713 66.092 L 183.796 70.368 186.103 70.406 C 187.814 70.434,188.452 70.337,188.570 70.031 C 188.691 69.715,188.388 69.617,187.284 69.617 C 185.070 69.617,184.846 69.208,184.846 65.168 C 184.846 62.000,184.813 61.815,184.238 61.815 C 183.651 61.815,183.632 61.969,183.713 66.092 M194.018 62.791 C 193.432 64.218,191.448 69.805,191.448 70.027 C 191.448 70.492,192.125 70.141,192.900 69.273 C 193.964 68.082,196.964 67.804,197.566 68.841 C 198.225 69.975,198.993 70.594,199.327 70.260 C 199.532 70.056,199.543 69.805,199.359 69.555 C 198.999 69.068,198.001 66.483,197.151 63.841 C 196.354 61.360,194.816 60.845,194.018 62.791 M203.051 62.016 C 202.593 62.473,202.829 70.218,203.301 70.218 C 203.661 70.218,203.751 69.765,203.751 67.947 C 203.751 65.528,204.076 64.516,204.852 64.516 C 205.322 64.516,206.751 65.936,206.751 66.403 C 206.753 67.573,210.595 70.934,210.683 69.842 C 210.851 67.756,210.626 62.257,210.370 62.171 C 210.002 62.049,209.980 62.178,209.894 64.912 C 209.817 67.360,209.510 67.807,208.438 67.026 C 208.016 66.718,207.667 66.349,207.661 66.206 C 207.656 66.063,207.281 65.501,206.827 64.958 C 206.373 64.414,205.664 63.488,205.251 62.901 C 204.554 61.907,203.559 61.507,203.051 62.016 M215.521 66.092 L 215.604 70.368 216.434 70.463 C 219.837 70.854,222.956 68.749,222.956 66.060 C 222.956 63.072,221.410 61.815,217.736 61.815 L 215.437 61.815 215.521 66.092 M226.557 66.039 C 226.557 69.899,226.602 70.253,227.082 70.161 C 227.958 69.993,228.040 61.815,227.165 61.815 C 226.583 61.815,226.557 61.996,226.557 66.039 M220.376 63.221 C 223.024 65.177,221.548 69.609,218.247 69.615 C 216.780 69.618,216.354 68.763,216.354 65.817 C 216.354 62.439,217.936 61.417,220.376 63.221 M196.542 64.771 C 197.009 66.454,196.921 66.904,196.059 67.232 C 194.399 67.863,193.775 67.077,194.219 64.911 C 194.616 62.974,196.019 62.890,196.542 64.771 M217.350 65.716 C 217.350 66.789,217.405 67.228,217.471 66.692 C 217.538 66.155,217.538 65.278,217.471 64.741 C 217.405 64.205,217.350 64.644,217.350 65.716 M194.845 65.866 C 194.913 66.524,195.702 66.699,195.826 66.084 C 195.869 65.874,195.835 65.840,195.751 66.009 C 195.516 66.483,195.110 66.374,194.938 65.791 C 194.818 65.383,194.797 65.400,194.845 65.866 M202.032 67.217 C 202.032 67.959,202.091 68.263,202.162 67.892 C 202.234 67.521,202.234 66.913,202.162 66.542 C 202.091 66.170,202.032 66.474,202.032 67.217 M170.068 68.629 C 170.439 68.700,171.047 68.700,171.418 68.629 C 171.789 68.557,171.485 68.499,170.743 68.499 C 170.000 68.499,169.696 68.557,170.068 68.629 M187.175 68.629 C 187.549 68.701,188.089 68.698,188.376 68.623 C 188.662 68.548,188.357 68.489,187.697 68.493 C 187.037 68.496,186.802 68.558,187.175 68.629 M235.938 68.632 C 236.394 68.701,237.069 68.700,237.438 68.628 C 237.808 68.557,237.434 68.501,236.609 68.503 C 235.784 68.505,235.482 68.563,235.938 68.632 M175.981 76.640 C 173.302 77.807,173.485 79.449,176.481 81.118 C 177.751 81.826,178.667 82.980,178.357 83.481 C 177.898 84.224,176.369 84.663,175.496 84.301 C 174.888 84.049,174.513 84.031,174.301 84.244 C 173.857 84.687,174.339 84.909,176.063 85.054 C 179.912 85.377,181.024 82.447,177.775 80.543 C 175.757 79.360,174.992 77.557,176.434 77.382 C 176.605 77.361,176.879 77.311,177.044 77.269 C 177.209 77.228,177.766 77.177,178.281 77.157 C 179.078 77.125,179.163 77.052,178.845 76.669 C 178.388 76.119,177.204 76.107,175.981 76.640 M189.497 76.717 C 186.570 78.257,185.851 81.705,188.007 83.861 C 191.661 87.515,198.146 82.234,194.836 78.300 C 193.330 76.510,191.130 75.858,189.497 76.717 M165.963 77.454 C 165.622 78.013,165.343 78.636,165.342 78.838 C 165.339 79.906,164.025 83.081,163.533 83.210 C 162.875 83.382,162.341 82.900,162.341 82.137 C 162.341 81.827,162.019 80.739,161.626 79.721 C 161.233 78.703,160.832 77.633,160.735 77.344 C 160.638 77.056,160.359 76.819,160.116 76.819 C 159.640 76.819,159.868 77.874,161.129 81.496 C 162.808 86.319,164.583 86.179,165.647 81.139 C 165.790 80.461,166.212 79.279,166.584 78.513 C 167.461 76.708,166.949 75.837,165.963 77.454 M170.343 76.719 C 169.820 77.242,170.128 84.968,170.668 84.865 C 171.125 84.777,171.204 84.321,171.280 81.317 C 171.387 77.076,171.150 75.912,170.343 76.719 M182.886 76.886 C 182.490 77.920,182.889 84.771,183.346 84.771 C 183.951 84.771,184.025 76.795,183.421 76.594 C 183.215 76.525,182.974 76.657,182.886 76.886 M198.781 76.911 C 198.504 77.631,198.791 84.621,199.100 84.697 C 199.276 84.741,199.462 83.598,199.550 81.920 C 199.723 78.631,200.322 78.083,201.491 80.145 C 202.024 81.085,202.907 82.247,204.686 84.348 C 205.239 85.001,206.021 85.102,206.225 84.546 C 206.440 83.962,206.281 76.849,206.049 76.616 C 205.571 76.139,205.229 77.153,205.214 79.090 C 205.186 82.779,204.648 83.015,202.638 80.223 C 200.210 76.849,199.153 75.941,198.781 76.911 M223.492 77.610 C 223.124 78.233,222.790 78.951,222.750 79.206 C 222.709 79.461,222.202 80.818,221.624 82.221 C 220.704 84.454,220.636 84.785,221.078 84.880 C 221.356 84.941,221.635 84.832,221.699 84.639 C 222.408 82.512,226.317 82.108,227.326 84.057 C 227.571 84.532,227.971 84.921,228.215 84.921 C 228.779 84.921,228.774 84.517,228.194 83.396 C 227.940 82.904,227.463 81.661,227.135 80.635 C 225.773 76.377,224.731 75.511,223.492 77.610 M230.574 80.270 C 230.575 82.416,230.623 83.254,230.680 82.133 C 230.738 81.012,230.738 79.257,230.679 78.232 C 230.621 77.207,230.574 78.125,230.574 80.270 M231.558 76.719 C 231.448 76.829,231.358 78.720,231.358 80.920 L 231.358 84.921 232.633 84.979 C 237.256 85.187,238.900 83.933,237.231 81.473 C 236.447 80.319,236.241 79.520,236.727 79.520 C 237.088 79.520,237.403 78.182,237.179 77.599 C 236.865 76.780,232.223 76.054,231.558 76.719 M181.663 80.720 C 181.663 82.948,181.710 83.860,181.768 82.746 C 181.826 81.632,181.826 79.809,181.768 78.695 C 181.710 77.581,181.663 78.492,181.663 80.720 M213.838 77.063 C 213.601 77.446,213.645 84.131,213.887 84.516 C 214.325 85.214,218.755 85.173,218.755 84.471 C 218.755 84.132,218.390 84.021,217.276 84.021 C 215.056 84.021,214.854 83.682,214.854 79.949 C 214.854 76.966,214.507 75.981,213.838 77.063 M235.929 77.824 C 236.588 78.856,236.038 79.888,234.656 80.216 C 232.932 80.626,232.051 78.368,233.548 77.377 C 233.969 77.098,235.670 77.418,235.929 77.824 M192.764 77.758 C 194.335 78.474,194.666 82.333,193.254 83.477 C 191.149 85.181,188.661 83.903,188.499 81.033 C 188.323 77.927,190.115 76.551,192.764 77.758 M225.489 78.986 C 226.723 80.747,225.555 83.130,223.894 82.241 C 222.725 81.615,223.324 78.320,224.606 78.320 C 224.835 78.320,225.232 78.620,225.489 78.986 M207.158 81.770 C 207.157 83.256,207.208 83.901,207.271 83.205 C 207.334 82.508,207.335 81.293,207.273 80.504 C 207.211 79.715,207.159 80.285,207.158 81.770 M196.331 80.720 C 196.331 81.463,196.389 81.767,196.461 81.395 C 196.532 81.024,196.532 80.416,196.461 80.045 C 196.389 79.674,196.331 79.977,196.331 80.720 M200.276 80.825 C 200.190 81.048,200.163 82.162,200.214 83.301 L 200.307 85.371 200.454 82.895 C 200.600 80.423,200.569 80.061,200.276 80.825 M172.329 82.071 C 172.331 82.896,172.389 83.198,172.458 82.742 C 172.527 82.285,172.526 81.610,172.454 81.241 C 172.383 80.872,172.327 81.245,172.329 82.071 M236.287 81.915 C 237.097 82.725,236.577 83.792,235.161 84.226 C 233.788 84.648,232.858 84.082,232.858 82.825 C 232.858 81.021,234.861 80.489,236.287 81.915 M224.085 83.933 C 224.458 84.005,224.998 84.002,225.285 83.927 C 225.572 83.852,225.266 83.793,224.606 83.797 C 223.946 83.800,223.711 83.861,224.085 83.933 M233.833 90.241 C 234.452 90.306,235.465 90.306,236.084 90.241 C 236.703 90.176,236.197 90.123,234.959 90.123 C 233.721 90.123,233.215 90.176,233.833 90.241 M159.265 91.388 C 159.141 91.517,159.040 103.810,159.040 118.705 C 159.040 145.682,159.012 146.737,158.301 146.737 C 157.935 146.737,154.978 142.466,153.188 139.352 C 152.693 138.491,150.832 135.445,149.052 132.584 C 147.273 129.723,145.720 127.219,145.602 127.020 C 145.483 126.820,144.542 125.433,143.511 123.937 C 142.479 122.441,141.635 121.099,141.635 120.956 C 141.635 120.407,140.430 120.330,131.858 120.330 C 123.359 120.330,123.031 120.351,123.031 120.905 C 123.031 121.222,123.137 121.525,123.268 121.580 C 123.398 121.635,123.770 122.104,124.093 122.623 C 124.417 123.141,125.392 124.590,126.262 125.843 C 127.131 127.095,127.978 128.427,128.145 128.801 C 128.755 130.176,131.995 135.344,133.557 137.434 C 133.866 137.847,134.372 138.725,134.681 139.385 C 134.991 140.045,136.480 142.398,137.990 144.613 C 139.500 146.829,140.735 148.750,140.735 148.883 C 140.735 149.159,143.964 154.392,145.243 156.189 C 145.713 156.849,146.399 157.997,146.769 158.740 C 147.138 159.482,148.340 161.440,149.439 163.091 C 150.538 164.741,152.151 167.307,153.023 168.792 C 153.895 170.278,155.268 172.402,156.074 173.514 C 156.880 174.625,157.539 175.600,157.539 175.679 C 157.539 175.857,160.078 179.958,162.192 183.196 C 164.198 186.267,166.842 190.554,166.842 190.734 C 166.842 190.811,167.382 191.604,168.042 192.498 C 168.702 193.392,169.242 194.209,169.242 194.315 C 169.242 194.420,169.965 195.607,170.848 196.953 C 171.730 198.299,172.627 199.737,172.839 200.150 C 173.052 200.563,173.918 201.980,174.763 203.301 C 176.922 206.674,177.011 206.822,177.338 207.577 C 177.498 207.948,177.747 208.252,177.891 208.252 C 178.328 208.252,178.169 92.228,177.733 91.791 C 177.315 91.374,159.648 90.988,159.265 91.388 M219.641 91.448 C 219.424 95.017,219.587 208.252,219.809 208.252 C 219.976 208.252,220.246 207.995,220.409 207.681 C 220.861 206.810,225.647 199.119,227.031 197.039 C 227.705 196.027,228.847 194.186,229.569 192.948 C 230.291 191.710,232.035 188.943,233.445 186.798 C 234.855 184.652,236.347 182.269,236.759 181.501 C 237.172 180.734,238.590 178.479,239.910 176.492 C 241.230 174.505,243.256 171.304,244.411 169.379 C 245.566 167.454,246.799 165.540,247.151 165.126 C 247.502 164.712,248.101 163.747,248.481 162.982 C 248.861 162.216,249.598 160.981,250.120 160.236 C 250.641 159.491,251.291 158.410,251.565 157.832 C 251.839 157.255,252.415 156.404,252.845 155.940 C 253.274 155.477,254.140 154.115,254.769 152.914 C 255.398 151.713,256.768 149.484,257.814 147.962 C 259.894 144.933,259.804 145.074,261.519 142.139 C 262.177 141.013,262.851 139.862,263.016 139.582 C 263.421 138.894,264.746 137.021,264.959 136.834 C 265.358 136.485,266.706 134.247,268.033 131.733 C 268.425 130.990,269.906 128.627,271.324 126.482 C 272.742 124.336,274.114 122.072,274.372 121.451 L 274.842 120.321 265.637 120.401 L 256.432 120.480 256.075 121.196 C 255.879 121.589,255.605 121.995,255.466 122.096 C 255.327 122.198,254.950 122.753,254.629 123.331 C 254.307 123.908,253.934 124.516,253.799 124.681 C 253.369 125.210,252.063 127.253,252.063 127.398 C 252.063 127.475,251.617 128.178,251.072 128.960 C 250.528 129.743,249.574 131.260,248.953 132.333 C 247.038 135.642,246.417 136.673,246.151 136.984 C 245.450 137.806,244.319 139.550,243.511 141.052 C 242.289 143.324,241.042 145.221,240.123 146.206 C 238.515 147.930,238.560 148.712,238.560 118.975 C 238.560 94.278,238.513 91.569,238.085 91.405 C 237.394 91.140,219.657 91.181,219.641 91.448 M122.959 119.342 C 123.333 119.414,123.873 119.411,124.160 119.336 C 124.446 119.261,124.141 119.202,123.481 119.205 C 122.821 119.209,122.586 119.270,122.959 119.342 M130.158 119.354 C 132.179 119.406,135.488 119.406,137.509 119.354 C 139.531 119.302,137.877 119.260,133.833 119.260 C 129.790 119.260,128.136 119.302,130.158 119.354 M262.041 119.354 C 264.475 119.405,268.458 119.405,270.893 119.354 C 273.327 119.304,271.335 119.262,266.467 119.262 C 261.598 119.262,259.606 119.304,262.041 119.354 " stroke="none" fill="#fcfcfc" fill-rule="evenodd"></path><path id="path3" d="M169.092 61.087 C 168.927 61.129,168.443 61.239,168.016 61.333 C 162.586 62.520,163.906 70.818,169.525 70.818 C 173.072 70.818,173.488 69.186,169.997 68.963 C 167.646 68.814,166.884 68.106,166.822 66.017 C 166.790 64.931,166.739 64.813,166.564 65.416 C 165.969 67.464,167.286 69.038,169.849 69.340 C 172.801 69.689,172.587 70.506,169.542 70.512 C 164.422 70.523,163.159 63.235,168.030 61.786 C 169.526 61.340,171.793 61.539,171.793 62.116 C 171.793 62.451,171.505 62.544,170.661 62.480 C 169.362 62.382,167.561 63.132,167.121 63.955 C 166.689 64.762,167.103 64.646,167.796 63.766 C 168.304 63.119,168.627 63.016,170.132 63.016 C 171.408 63.016,171.925 62.894,172.052 62.566 C 172.298 61.925,171.963 61.223,171.386 61.168 C 170.063 61.042,169.366 61.018,169.092 61.087 M160.033 61.590 C 159.632 62.212,159.538 69.466,159.921 70.183 C 160.349 70.982,161.743 71.067,161.736 70.293 C 161.732 69.872,161.678 69.851,161.466 70.186 C 160.626 71.512,160.240 70.268,160.245 66.251 C 160.250 62.003,160.514 60.922,161.296 61.948 C 161.731 62.517,161.740 62.516,161.740 61.873 C 161.740 61.129,160.467 60.919,160.033 61.590 M175.076 61.604 C 174.994 61.818,174.964 63.945,175.010 66.330 L 175.094 70.668 177.833 70.753 C 180.683 70.843,181.601 70.407,180.581 69.448 C 180.142 69.035,176.981 68.672,177.222 69.062 C 177.309 69.203,177.878 69.319,178.487 69.322 C 179.847 69.328,180.634 69.749,180.163 70.219 C 179.969 70.413,178.937 70.510,177.615 70.457 L 175.394 70.368 175.310 66.190 C 175.214 61.423,175.164 61.525,177.644 61.525 C 180.313 61.525,180.752 62.127,178.395 62.554 C 177.102 62.788,176.739 63.127,176.779 64.066 C 176.799 64.546,176.846 64.516,177.011 63.916 C 177.183 63.293,177.428 63.150,178.458 63.075 C 179.817 62.975,180.459 62.460,180.168 61.703 C 179.924 61.066,175.317 60.977,175.076 61.604 M183.235 61.890 C 182.539 64.488,183.125 70.834,184.056 70.783 C 184.563 70.755,184.587 70.720,184.171 70.611 C 183.542 70.447,183.355 62.030,183.972 61.649 C 184.639 61.237,184.888 62.117,184.985 65.233 C 185.097 68.805,185.326 69.317,186.809 69.317 C 189.346 69.317,189.533 70.438,187.022 70.596 L 185.296 70.704 187.140 70.761 C 188.600 70.806,189.022 70.716,189.170 70.330 C 189.476 69.532,188.771 69.017,187.371 69.017 C 185.679 69.017,185.446 68.568,185.446 65.306 C 185.446 62.196,185.133 61.215,184.138 61.215 C 183.643 61.215,183.359 61.427,183.235 61.890 M194.074 61.539 C 193.785 61.708,193.548 62.043,193.548 62.284 C 193.548 62.525,193.284 63.295,192.960 63.994 C 192.315 65.389,190.858 69.845,190.852 70.443 C 190.845 71.079,192.581 70.901,192.790 70.245 C 193.347 68.488,196.387 68.205,197.601 69.797 C 198.177 70.551,198.611 70.818,199.265 70.818 C 200.274 70.818,200.455 70.131,199.705 69.150 C 199.290 68.606,199.273 68.632,199.443 69.542 C 199.693 70.880,198.970 70.845,197.920 69.467 C 196.668 67.826,193.668 67.935,192.779 69.654 C 192.534 70.129,192.134 70.518,191.890 70.518 C 191.035 70.518,191.297 69.492,193.895 62.639 C 194.761 60.354,196.396 61.259,197.590 64.685 C 198.104 66.160,198.698 67.637,198.910 67.967 L 199.295 68.567 199.084 67.967 C 198.968 67.637,198.804 67.029,198.721 66.617 C 198.637 66.204,198.465 65.731,198.339 65.566 C 198.212 65.401,197.949 64.659,197.754 63.916 C 197.085 61.363,195.800 60.534,194.074 61.539 M202.543 61.985 C 201.701 64.199,202.271 70.818,203.304 70.818 C 204.178 70.818,204.351 70.328,204.351 67.852 C 204.351 65.554,204.710 64.915,205.582 65.662 C 205.895 65.930,206.152 66.262,206.152 66.399 C 206.152 67.123,209.567 70.818,210.236 70.818 C 210.630 70.818,210.953 70.687,210.953 70.527 C 210.953 70.367,210.743 70.317,210.487 70.415 C 209.874 70.650,208.956 69.757,207.001 67.024 C 204.778 63.915,204.256 64.012,204.051 67.568 C 203.898 70.220,203.738 70.731,203.171 70.380 C 202.606 70.031,202.748 61.919,203.323 61.699 C 204.103 61.399,204.739 61.949,206.744 64.656 C 209.214 67.991,209.573 67.964,209.689 64.438 C 209.768 62.062,209.831 61.815,210.364 61.815 C 210.688 61.815,210.953 61.680,210.953 61.515 C 210.953 61.350,210.685 61.215,210.358 61.215 C 209.657 61.215,209.486 61.791,209.379 64.516 C 209.298 66.570,208.815 67.094,208.135 65.866 C 207.952 65.536,207.714 65.199,207.607 65.116 C 207.500 65.034,206.791 64.122,206.032 63.091 C 204.433 60.917,203.109 60.497,202.543 61.985 M215.036 61.690 C 214.936 61.951,214.854 63.898,214.854 66.017 C 214.854 68.135,214.936 70.082,215.036 70.343 C 215.275 70.966,218.937 71.000,220.390 70.393 C 220.949 70.160,221.451 69.991,221.506 70.018 C 221.561 70.045,221.584 70.023,221.557 69.969 C 221.531 69.915,221.936 69.463,222.458 68.964 C 223.721 67.756,223.885 64.245,222.732 63.092 C 220.949 61.310,215.559 60.328,215.036 61.690 M226.088 61.604 C 226.006 61.818,225.977 63.945,226.023 66.330 L 226.107 70.668 226.957 70.765 C 228.386 70.929,228.624 70.243,228.605 66.017 C 228.597 63.953,228.465 62.029,228.313 61.740 C 227.986 61.121,226.313 61.019,226.088 61.604 M233.109 61.955 C 230.049 64.034,229.886 68.008,232.778 70.012 C 234.318 71.079,237.793 71.215,238.109 70.220 C 238.400 69.303,238.043 69.017,236.611 69.017 C 234.569 69.017,233.834 68.612,233.479 67.292 C 232.744 64.563,233.914 63.016,236.714 63.016 C 238.288 63.016,238.689 62.674,238.208 61.740 C 237.761 60.871,234.503 61.008,233.109 61.955 M221.091 62.259 C 225.774 64.688,222.562 70.825,216.799 70.462 L 215.304 70.368 215.220 66.190 C 215.157 63.056,215.232 61.946,215.520 61.748 C 216.121 61.336,219.997 61.691,221.091 62.259 M227.875 61.990 C 227.975 62.251,228.057 64.063,228.057 66.017 C 228.057 69.942,227.942 70.518,227.160 70.518 C 226.422 70.518,226.265 69.697,226.261 65.816 C 226.256 62.092,226.376 61.515,227.157 61.515 C 227.452 61.515,227.775 61.729,227.875 61.990 M237.907 62.209 C 237.996 62.674,237.865 62.725,237.010 62.566 C 234.195 62.043,232.140 64.649,233.104 67.519 C 233.547 68.841,234.229 69.270,236.208 69.472 C 238.750 69.733,238.576 70.518,235.976 70.518 C 231.658 70.518,229.514 66.454,232.168 63.299 C 233.631 61.561,237.639 60.799,237.907 62.209 M211.070 66.017 C 211.070 68.245,211.118 69.156,211.175 68.042 C 211.233 66.928,211.233 65.105,211.175 63.991 C 211.118 62.877,211.070 63.788,211.070 66.017 M216.790 63.039 C 216.330 63.783,216.433 68.149,216.924 68.722 C 219.110 71.276,223.049 66.650,220.924 64.026 C 219.949 62.823,217.313 62.193,216.790 63.039 M220.278 63.893 C 220.966 64.581,221.155 65.039,221.155 66.017 C 221.155 68.153,218.580 69.923,217.314 68.657 C 216.933 68.275,216.794 63.576,217.154 63.216 C 217.697 62.673,219.435 63.049,220.278 63.893 M194.769 63.893 C 194.499 64.066,194.332 64.708,194.319 65.618 L 194.299 67.067 195.426 67.160 C 196.830 67.276,197.046 66.834,196.451 65.070 C 196.001 63.735,195.529 63.405,194.769 63.893 M196.026 65.584 C 196.093 66.665,196.034 66.767,195.349 66.767 C 194.672 66.767,194.609 66.664,194.702 65.716 C 194.913 63.578,195.897 63.479,196.026 65.584 M177.165 65.069 C 177.283 65.260,177.766 65.416,178.238 65.416 C 178.710 65.416,179.313 65.500,179.578 65.601 C 180.353 65.899,179.533 66.617,178.418 66.617 C 177.375 66.617,176.734 67.076,176.763 67.802 C 176.775 68.087,176.887 68.006,177.054 67.592 C 177.270 67.053,177.562 66.917,178.498 66.917 C 179.143 66.917,179.825 66.731,180.013 66.505 C 180.535 65.876,180.085 65.117,179.188 65.112 C 178.751 65.110,178.070 65.021,177.673 64.915 C 177.166 64.779,177.015 64.825,177.165 65.069 M170.164 76.198 C 169.674 76.687,169.554 77.153,169.598 78.395 L 169.653 79.970 169.763 78.419 C 169.876 76.811,170.502 75.859,171.072 76.428 C 171.257 76.613,171.340 78.387,171.284 80.977 C 171.225 83.715,171.299 85.186,171.493 85.120 C 172.061 84.927,171.880 76.839,171.293 76.162 C 170.790 75.582,170.779 75.582,170.164 76.198 M175.622 76.197 C 172.540 77.920,173.094 80.225,177.044 82.112 C 178.781 82.941,177.382 84.407,175.485 83.745 C 175.013 83.581,174.428 83.522,174.185 83.616 C 173.712 83.797,173.561 85.221,174.015 85.221 C 174.165 85.221,174.211 84.931,174.118 84.575 C 173.961 83.974,174.031 83.942,175.128 84.118 C 178.251 84.617,179.147 83.068,176.670 81.447 C 174.398 79.960,174.004 79.507,174.104 78.495 C 174.235 77.170,175.839 76.163,177.632 76.280 C 179.157 76.380,179.772 77.260,178.487 77.505 C 177.878 77.622,177.895 77.643,178.629 77.679 C 179.767 77.734,180.061 76.901,179.162 76.172 C 178.306 75.480,176.887 75.489,175.622 76.197 M182.804 75.981 C 182.404 76.381,182.277 85.221,182.671 85.222 C 182.794 85.222,182.855 83.312,182.804 80.977 C 182.712 76.680,182.917 75.671,183.721 76.474 C 184.246 76.999,184.433 83.712,183.947 84.619 C 183.655 85.164,183.664 85.265,183.992 85.156 C 184.751 84.903,184.556 76.549,183.779 76.033 C 183.301 75.715,183.081 75.703,182.804 75.981 M189.957 76.050 C 189.262 76.435,189.301 76.451,190.579 76.307 C 194.987 75.810,197.452 80.796,194.338 83.910 C 193.617 84.631,193.170 85.221,193.345 85.221 C 193.975 85.221,195.929 82.783,196.121 81.757 C 196.768 78.308,192.693 74.535,189.957 76.050 M198.521 76.391 C 197.997 76.915,197.821 84.095,198.313 84.872 C 199.200 86.272,199.997 85.122,200.150 82.221 L 200.300 79.370 201.425 81.020 C 202.826 83.075,204.852 85.421,205.052 85.220 C 205.135 85.137,204.663 84.462,204.004 83.720 C 203.344 82.978,202.329 81.661,201.748 80.795 C 200.017 78.214,199.550 78.576,199.550 82.501 C 199.550 84.370,199.455 84.921,199.132 84.921 C 198.481 84.921,198.350 84.218,198.350 80.720 C 198.350 75.403,199.061 75.068,201.926 79.036 C 204.572 82.701,204.865 82.661,205.025 78.620 C 205.092 76.895,205.171 76.669,205.701 76.669 C 206.274 76.669,206.302 76.869,206.302 80.946 C 206.302 83.298,206.403 85.222,206.527 85.222 C 207.094 85.221,206.772 76.551,206.193 76.241 C 205.138 75.677,204.679 76.443,204.586 78.920 C 204.481 81.693,204.309 81.692,202.306 78.898 C 200.294 76.092,199.407 75.504,198.521 76.391 M223.947 76.278 C 223.584 76.453,223.152 76.984,222.987 77.458 C 222.822 77.932,222.560 78.320,222.404 78.320 C 222.248 78.320,222.053 78.758,221.970 79.295 C 221.886 79.831,221.732 80.608,221.627 81.020 C 221.402 81.908,221.840 81.066,223.070 78.245 C 224.049 76.001,225.368 75.744,226.150 77.644 C 226.405 78.263,226.791 79.175,227.008 79.670 C 227.225 80.165,227.484 80.773,227.583 81.020 C 227.682 81.268,227.693 81.011,227.608 80.450 C 227.424 79.230,226.287 76.816,225.656 76.304 C 225.115 75.864,224.813 75.860,223.947 76.278 M231.614 76.120 C 230.531 76.407,230.337 85.221,231.413 85.221 C 231.567 85.221,231.606 85.079,231.498 84.906 C 231.274 84.542,231.103 77.833,231.298 77.044 C 231.408 76.601,231.787 76.519,233.727 76.519 C 237.073 76.519,237.815 77.167,237.012 79.387 C 236.712 80.217,236.753 80.489,237.312 81.394 C 238.163 82.771,238.129 83.357,237.134 84.419 C 236.411 85.191,236.391 85.256,236.977 84.953 C 238.361 84.237,238.633 82.687,237.624 81.270 C 237.007 80.404,237.003 80.343,237.503 79.234 C 238.567 76.873,235.293 75.143,231.614 76.120 M159.340 77.000 C 159.340 78.942,161.842 85.221,162.616 85.221 C 162.994 85.221,162.991 85.169,162.601 84.846 C 161.951 84.310,159.640 78.189,159.640 77.004 C 159.640 76.206,160.532 76.456,160.857 77.344 C 161.441 78.944,161.510 79.069,161.632 78.748 C 161.700 78.572,161.547 77.930,161.293 77.323 C 160.707 75.919,159.340 75.693,159.340 77.000 M165.566 76.960 C 165.278 77.357,165.041 77.970,165.041 78.321 C 165.041 78.672,164.897 79.228,164.722 79.556 C 164.546 79.885,164.460 80.315,164.530 80.512 C 164.600 80.709,164.868 80.172,165.126 79.318 C 165.745 77.271,166.168 76.519,166.702 76.519 C 167.342 76.519,167.243 77.416,166.392 79.341 C 165.629 81.066,165.386 82.714,165.946 82.368 C 166.114 82.264,166.184 82.070,166.102 81.937 C 165.942 81.678,166.698 79.266,167.307 78.092 C 168.155 76.458,166.645 75.476,165.566 76.960 M213.494 76.534 C 213.178 77.046,213.194 84.582,213.513 84.901 C 213.700 85.089,213.803 83.683,213.803 80.931 C 213.803 76.869,213.832 76.669,214.404 76.669 C 214.962 76.669,215.009 76.896,215.085 79.970 C 215.179 83.744,215.341 84.021,217.462 84.021 C 218.555 84.021,218.755 84.114,218.755 84.621 C 218.755 85.165,218.535 85.227,216.429 85.279 L 214.104 85.337 216.045 85.445 C 218.505 85.582,219.355 85.375,219.355 84.636 C 219.355 84.013,218.600 83.669,217.025 83.573 C 215.643 83.488,215.611 83.412,215.539 80.038 C 215.503 78.369,215.406 76.827,215.323 76.611 C 215.144 76.143,213.771 76.085,213.494 76.534 M187.614 77.402 C 187.082 77.888,186.650 78.462,186.653 78.678 C 186.657 78.893,186.908 78.747,187.211 78.353 C 187.515 77.958,188.086 77.387,188.480 77.084 C 188.875 76.781,189.059 76.529,188.889 76.526 C 188.720 76.522,188.146 76.917,187.614 77.402 M176.007 77.977 C 175.726 78.863,176.104 79.439,177.500 80.257 C 180.078 81.768,180.625 83.180,179.122 84.444 C 178.546 84.929,178.369 85.221,178.651 85.221 C 179.192 85.221,180.345 83.689,180.345 82.971 C 180.345 82.138,179.193 80.774,177.802 79.959 C 176.216 79.029,175.959 78.483,176.824 77.878 L 177.478 77.419 176.831 77.419 C 176.464 77.419,176.108 77.661,176.007 77.977 M189.722 77.855 C 189.136 78.117,188.751 78.506,188.756 78.830 C 188.765 79.325,188.790 79.328,189.059 78.867 C 190.316 76.712,193.354 77.908,193.486 80.611 C 193.615 83.246,191.194 84.642,189.366 82.987 C 189.025 82.679,188.747 82.576,188.747 82.757 C 188.747 83.972,191.759 84.420,193.058 83.399 C 194.225 82.481,194.251 78.953,193.097 78.196 C 192.001 77.478,190.831 77.360,189.722 77.855 M233.138 78.057 C 232.677 78.918,233.221 80.120,234.072 80.120 C 234.888 80.120,235.859 79.593,235.859 79.149 C 235.859 78.889,235.767 78.892,235.499 79.160 C 234.792 79.867,233.458 79.606,233.458 78.760 C 233.458 77.842,234.137 77.522,235.128 77.974 C 235.530 78.157,235.859 78.189,235.859 78.045 C 235.859 77.220,233.581 77.230,233.138 78.057 M223.856 78.869 C 223.856 79.005,224.160 79.107,224.531 79.094 C 225.128 79.073,225.217 79.236,225.298 80.495 C 225.385 81.847,225.350 81.920,224.623 81.920 C 223.924 81.920,223.854 81.808,223.837 80.645 C 223.821 79.574,223.774 79.478,223.545 80.048 C 223.094 81.171,223.689 82.280,224.681 82.165 C 226.121 82.000,226.044 78.620,224.600 78.620 C 224.191 78.620,223.856 78.732,223.856 78.869 M161.760 79.324 C 161.703 80.077,162.762 82.886,163.161 83.039 C 163.724 83.255,164.451 82.358,164.417 81.488 C 164.398 80.984,164.338 81.022,164.092 81.695 C 163.927 82.149,163.602 82.521,163.372 82.521 C 163.141 82.521,162.874 82.149,162.778 81.695 C 162.583 80.776,161.790 78.927,161.760 79.324 M186.437 80.720 C 186.437 81.628,186.493 81.999,186.562 81.545 C 186.630 81.092,186.630 80.349,186.562 79.895 C 186.493 79.441,186.437 79.812,186.437 80.720 M233.143 82.110 C 232.632 83.456,233.024 84.021,234.469 84.021 C 235.809 84.021,236.459 83.625,236.459 82.807 C 236.459 81.310,233.670 80.724,233.143 82.110 M227.757 81.846 C 227.757 82.033,228.041 82.668,228.388 83.256 C 228.735 83.845,228.942 84.528,228.848 84.774 C 228.753 85.020,228.792 85.221,228.935 85.221 C 229.434 85.221,229.551 84.272,229.106 83.827 C 228.859 83.580,228.653 83.219,228.648 83.024 C 228.635 82.563,227.757 81.401,227.757 81.846 M235.700 82.027 C 236.754 82.797,235.251 84.128,233.909 83.613 C 233.457 83.439,233.283 82.196,233.658 81.820 C 233.995 81.484,235.113 81.597,235.700 82.027 M220.600 83.200 C 219.826 84.964,219.817 85.027,220.308 85.180 C 220.526 85.248,220.610 85.201,220.493 85.075 C 220.376 84.950,220.553 84.313,220.886 83.661 C 221.218 83.009,221.431 82.317,221.359 82.123 C 221.287 81.929,220.945 82.414,220.600 83.200 M186.656 82.865 C 186.646 83.405,188.550 85.221,189.126 85.221 C 189.323 85.221,188.983 84.808,188.370 84.303 C 187.758 83.798,187.124 83.157,186.961 82.878 C 186.691 82.416,186.664 82.415,186.656 82.865 M165.198 83.111 C 164.845 83.681,164.474 85.221,164.689 85.221 C 164.802 85.221,165.053 84.716,165.246 84.099 C 165.599 82.970,165.576 82.498,165.198 83.111 M223.347 83.124 C 222.984 83.270,222.467 83.836,222.199 84.381 L 221.711 85.371 222.505 84.396 C 223.688 82.943,226.302 83.013,226.872 84.512 C 227.021 84.902,227.276 85.221,227.439 85.221 C 227.603 85.221,227.466 84.763,227.136 84.203 C 226.359 82.886,224.941 82.482,223.347 83.124 M175.394 85.501 C 175.953 85.723,177.638 85.617,177.919 85.343 C 177.988 85.276,177.313 85.231,176.419 85.242 C 175.298 85.257,174.980 85.337,175.394 85.501 M190.323 85.436 C 190.776 85.505,191.519 85.505,191.973 85.436 C 192.427 85.367,192.056 85.311,191.148 85.311 C 190.240 85.311,189.869 85.367,190.323 85.436 M232.408 85.400 C 233.834 85.629,235.859 85.657,235.859 85.449 C 235.859 85.324,234.947 85.240,233.833 85.262 C 232.719 85.285,232.078 85.346,232.408 85.400 M159.265 90.830 C 158.770 90.959,158.738 92.518,158.719 118.027 C 158.707 132.909,158.599 145.336,158.479 145.642 C 158.262 146.192,157.868 145.754,156.194 143.104 C 156.026 142.838,155.487 142.028,154.996 141.303 C 153.826 139.575,153.338 138.655,153.338 138.175 C 153.338 137.960,153.237 137.739,153.113 137.684 C 152.896 137.588,151.433 135.529,150.799 134.426 C 150.307 133.571,146.913 128.200,145.329 125.768 C 144.535 124.550,143.449 122.863,142.914 122.017 C 142.380 121.172,141.713 120.311,141.432 120.105 C 140.831 119.664,123.159 119.563,122.475 119.996 C 121.986 120.306,122.645 121.576,125.237 125.324 C 126.166 126.668,127.420 128.693,128.022 129.825 C 128.624 130.957,129.504 132.423,129.978 133.083 C 131.519 135.233,133.596 138.464,134.029 139.385 C 134.262 139.880,134.685 140.638,134.968 141.069 C 135.252 141.499,136.146 142.850,136.956 144.069 C 138.879 146.966,140.170 149.039,140.861 150.338 C 141.169 150.915,142.178 152.516,143.103 153.896 C 144.029 155.275,144.921 156.622,145.086 156.889 C 146.272 158.806,146.737 159.428,146.737 159.097 C 146.737 158.888,145.548 156.921,144.094 154.728 C 142.641 152.534,141.213 150.278,140.922 149.713 C 140.162 148.244,139.774 147.599,139.010 146.534 C 138.638 146.017,138.335 145.511,138.335 145.410 C 138.335 145.310,137.674 144.318,136.867 143.206 C 136.059 142.095,135.088 140.578,134.707 139.835 C 133.927 138.312,130.993 133.697,130.225 132.783 C 129.947 132.453,129.261 131.307,128.701 130.237 C 128.140 129.167,126.725 126.871,125.556 125.136 C 122.900 121.194,122.582 120.607,122.970 120.367 C 123.136 120.264,127.354 120.248,132.343 120.330 L 141.414 120.480 142.841 122.581 C 144.074 124.396,148.329 131.159,150.198 134.276 C 150.533 134.835,151.026 135.539,151.293 135.839 C 151.559 136.139,152.282 137.329,152.899 138.485 C 153.516 139.640,154.519 141.328,155.129 142.236 C 155.738 143.143,156.616 144.460,157.079 145.161 C 159.107 148.233,159.040 149.155,159.040 118.355 L 159.040 91.223 161.280 91.223 C 164.683 91.223,171.137 90.929,171.299 90.766 C 171.481 90.584,159.973 90.645,159.265 90.830 M219.561 90.869 C 218.966 90.984,218.755 209.232,219.349 209.599 C 219.511 209.699,220.153 209.013,220.775 208.073 C 221.397 207.134,222.140 206.014,222.427 205.583 C 222.714 205.153,223.187 204.329,223.477 203.751 C 223.768 203.173,224.111 202.655,224.239 202.598 C 224.366 202.542,224.666 202.069,224.903 201.548 C 225.392 200.477,225.971 199.540,228.432 195.845 C 229.381 194.420,230.158 193.182,230.158 193.095 C 230.158 193.008,230.505 192.386,230.929 191.714 C 231.354 191.041,231.640 190.430,231.566 190.356 C 231.492 190.282,230.518 191.746,229.401 193.610 C 228.285 195.474,227.143 197.269,226.863 197.599 C 226.583 197.929,225.640 199.415,224.767 200.900 C 222.497 204.762,219.843 208.824,219.580 208.839 C 219.456 208.846,219.355 182.386,219.355 150.038 C 219.355 94.229,219.382 91.222,219.880 91.207 C 220.169 91.199,222.228 91.182,224.456 91.170 C 226.684 91.158,228.170 91.102,227.757 91.047 C 226.650 90.897,220.149 90.756,219.561 90.869 M175.544 91.197 L 178.095 91.373 178.246 143.286 L 178.398 195.199 178.396 143.136 L 178.395 91.073 175.694 91.047 L 172.993 91.022 175.544 91.197 M238.035 91.130 C 238.530 91.259,238.560 92.816,238.560 118.494 C 238.560 148.378,238.520 147.704,240.187 146.037 C 240.630 145.594,241.186 144.768,241.422 144.204 C 241.658 143.639,241.991 143.091,242.162 142.985 C 242.332 142.880,242.825 142.094,243.257 141.239 C 243.688 140.384,244.678 138.740,245.456 137.584 C 247.122 135.112,248.121 133.533,249.064 131.883 C 249.441 131.223,250.316 129.805,251.008 128.732 C 254.807 122.841,255.845 121.225,256.136 120.745 C 256.576 120.019,274.476 119.739,274.750 120.454 C 274.968 121.022,274.339 122.193,271.406 126.673 C 270.041 128.759,268.594 131.055,268.191 131.774 C 266.964 133.963,264.925 137.228,264.140 138.257 C 263.406 139.220,260.165 144.581,260.165 144.832 C 260.165 144.903,259.614 145.708,258.940 146.620 C 256.407 150.049,254.044 154.309,255.214 153.338 C 255.461 153.133,255.664 152.795,255.664 152.587 C 255.664 152.380,256.825 150.472,258.244 148.348 C 259.662 146.224,260.943 144.179,261.090 143.803 C 261.237 143.427,261.495 142.955,261.665 142.753 C 262.152 142.174,263.466 140.126,263.466 139.946 C 263.466 139.813,264.498 138.267,265.639 136.691 C 266.510 135.488,268.567 132.212,268.567 132.028 C 268.567 131.642,269.271 130.427,270.395 128.872 C 270.988 128.053,271.558 127.146,271.661 126.857 C 271.764 126.568,271.988 126.332,272.159 126.332 C 272.329 126.332,272.468 126.176,272.468 125.985 C 272.468 125.794,272.782 125.220,273.166 124.709 C 274.423 123.036,275.623 120.364,275.274 120.015 C 274.814 119.555,257.023 119.626,256.278 120.091 C 255.974 120.281,255.501 120.852,255.229 121.359 C 254.956 121.866,254.517 122.686,254.252 123.181 C 253.987 123.676,253.660 124.125,253.526 124.178 C 253.392 124.231,252.846 125.041,252.313 125.978 C 251.779 126.915,250.865 128.350,250.282 129.167 C 249.698 129.984,248.948 131.199,248.616 131.868 C 247.996 133.115,247.531 133.859,244.509 138.428 C 243.547 139.882,242.761 141.188,242.761 141.330 C 242.761 141.473,242.442 141.971,242.052 142.438 C 241.662 142.904,241.257 143.556,241.152 143.886 C 240.855 144.821,239.542 146.315,239.262 146.037 C 239.123 145.899,239.000 133.678,238.988 118.880 C 238.963 87.902,239.049 90.913,238.185 90.958 C 237.676 90.984,237.639 91.026,238.035 91.130 M253.836 154.896 C 253.454 155.442,253.059 155.956,252.958 156.039 C 252.651 156.289,249.564 161.345,248.749 162.934 C 248.329 163.752,247.711 164.730,247.377 165.107 C 246.686 165.885,242.461 172.626,242.461 172.949 C 242.461 173.065,241.308 174.860,239.899 176.936 C 238.490 179.013,237.087 181.203,236.780 181.804 C 236.474 182.404,235.319 184.246,234.213 185.896 C 231.740 189.589,231.541 189.947,231.957 189.947 C 232.133 189.947,232.364 189.711,232.470 189.422 C 232.577 189.134,232.978 188.479,233.361 187.969 C 233.745 187.458,234.067 186.918,234.078 186.768 C 234.089 186.619,234.561 185.889,235.128 185.146 C 235.694 184.404,236.301 183.461,236.477 183.052 C 236.653 182.643,236.890 182.238,237.003 182.152 C 237.116 182.066,237.479 181.496,237.809 180.885 C 238.140 180.274,239.341 178.383,240.479 176.684 C 241.618 174.984,242.701 173.256,242.887 172.843 C 243.191 172.167,243.884 171.041,246.306 167.292 C 246.733 166.632,247.310 165.821,247.589 165.491 C 247.869 165.161,248.471 164.168,248.928 163.283 C 249.832 161.535,251.643 158.689,253.595 155.950 C 254.277 154.993,254.766 154.141,254.682 154.057 C 254.598 153.973,254.217 154.351,253.836 154.896 M146.737 160.028 C 146.737 160.290,146.869 160.586,147.030 160.686 C 147.191 160.786,148.356 162.448,149.617 164.380 C 150.879 166.311,152.165 168.258,152.475 168.705 C 152.785 169.152,153.038 169.661,153.038 169.837 C 153.038 170.225,154.336 172.265,155.619 173.893 C 156.139 174.554,156.788 175.499,157.060 175.994 C 157.996 177.692,158.808 178.995,159.024 179.145 C 159.144 179.227,159.670 180.082,160.194 181.044 C 160.718 182.006,161.483 183.234,161.893 183.773 C 162.304 184.312,162.641 184.826,162.641 184.915 C 162.641 185.005,163.181 185.887,163.841 186.875 C 164.501 187.864,165.041 188.825,165.041 189.010 C 165.041 189.196,165.180 189.347,165.349 189.347 C 165.518 189.347,165.791 189.701,165.955 190.134 C 166.217 190.822,166.766 191.691,169.291 195.412 C 169.594 195.859,169.842 196.340,169.842 196.480 C 169.842 196.621,170.102 197.015,170.420 197.356 C 170.737 197.697,171.418 198.764,171.932 199.727 C 172.446 200.691,173.064 201.697,173.305 201.964 C 173.546 202.230,173.743 202.544,173.743 202.661 C 173.743 202.779,173.992 203.241,174.297 203.688 C 174.601 204.135,175.186 205.041,175.596 205.701 C 177.863 209.347,178.545 210.073,178.545 208.843 C 178.545 208.518,178.443 208.268,178.320 208.288 C 177.732 208.380,177.400 208.208,177.238 207.727 C 177.141 207.438,176.889 206.941,176.678 206.621 C 176.467 206.302,175.459 204.681,174.439 203.020 C 173.419 201.359,171.832 198.844,170.913 197.431 C 169.994 196.018,169.242 194.763,169.242 194.642 C 169.242 194.522,168.702 193.692,168.042 192.798 C 167.382 191.905,166.842 191.099,166.842 191.007 C 166.842 190.724,162.909 184.431,162.335 183.796 C 162.037 183.466,161.468 182.588,161.072 181.845 C 160.675 181.103,159.718 179.515,158.945 178.317 C 158.172 177.118,157.539 176.050,157.539 175.943 C 157.539 175.835,156.790 174.752,155.875 173.536 C 154.959 172.319,153.841 170.620,153.390 169.758 C 152.938 168.897,152.315 167.787,152.005 167.292 C 149.406 163.140,146.737 159.459,146.737 160.028 M178.347 197.599 C 178.349 198.920,178.401 199.423,178.465 198.717 C 178.528 198.011,178.527 196.931,178.463 196.316 C 178.398 195.702,178.346 196.279,178.347 197.599 M178.363 203.958 C 178.382 204.707,178.504 205.106,178.667 204.946 C 178.830 204.785,178.817 204.280,178.636 203.689 L 178.332 202.701 178.363 203.958 " stroke="none" fill="#ececec" fill-rule="evenodd"></path><path id="path4" d="M159.793 61.106 C 159.306 61.592,159.110 70.019,159.569 70.690 C 159.941 71.232,160.808 71.415,161.593 71.117 L 162.341 70.833 162.341 66.061 C 162.341 62.595,162.238 61.211,161.965 61.005 C 161.376 60.559,160.289 60.609,159.793 61.106 M167.519 61.028 C 165.047 61.889,163.647 65.047,164.490 67.861 C 164.822 68.971,166.740 71.320,167.056 71.004 C 167.138 70.921,166.733 70.367,166.156 69.773 C 163.584 67.124,164.607 62.092,167.866 61.362 C 170.949 60.671,172.597 61.145,172.052 62.566 C 171.926 62.893,171.411 63.016,170.160 63.016 C 165.608 63.016,165.453 68.674,169.997 68.963 C 173.443 69.183,173.081 70.815,169.585 70.822 C 167.994 70.825,167.430 70.916,167.742 71.118 C 169.291 72.119,172.620 71.225,172.487 69.843 C 172.394 68.880,172.368 68.864,170.492 68.658 C 166.030 68.165,166.088 63.077,170.552 63.351 C 172.127 63.448,172.543 63.201,172.543 62.170 C 172.543 60.776,169.941 60.185,167.519 61.028 M174.866 61.036 C 174.003 61.898,174.122 70.328,175.006 70.947 C 176.301 71.855,180.778 71.516,181.106 70.485 C 181.478 69.313,181.014 68.809,179.386 68.616 C 176.909 68.323,176.645 67.233,179.048 67.221 C 181.585 67.209,181.416 65.017,178.845 64.579 C 177.176 64.295,177.007 63.557,178.545 63.269 L 179.595 63.072 178.395 63.119 C 175.958 63.214,176.708 65.099,179.188 65.112 C 181.076 65.122,180.395 66.834,178.446 66.976 C 176.064 67.149,176.598 69.004,179.033 69.013 C 180.375 69.018,181.068 69.549,180.764 70.340 C 180.601 70.764,180.161 70.826,177.833 70.753 L 175.094 70.668 175.094 66.017 L 175.094 61.365 177.533 61.279 C 180.021 61.190,180.937 61.644,180.055 62.526 C 179.529 63.051,179.712 63.355,180.349 63.014 C 180.927 62.704,181.007 61.477,180.483 60.953 C 180.018 60.487,175.346 60.556,174.866 61.036 M183.354 61.055 C 183.153 61.297,183.059 61.669,183.144 61.880 C 183.241 62.123,183.307 62.071,183.322 61.740 C 183.338 61.385,183.591 61.215,184.103 61.215 C 185.136 61.215,185.446 62.159,185.446 65.306 C 185.446 68.568,185.679 69.017,187.371 69.017 C 188.771 69.017,189.476 69.532,189.170 70.330 C 188.879 71.089,183.356 71.054,183.322 70.293 C 183.307 69.962,183.241 69.910,183.144 70.153 C 182.610 71.482,187.754 72.052,189.333 70.839 C 190.523 69.924,189.812 68.719,188.078 68.713 C 186.074 68.705,186.024 68.614,185.957 64.840 C 185.887 60.945,184.781 59.336,183.354 61.055 M193.848 61.215 C 193.518 61.545,193.244 61.984,193.239 62.191 C 193.234 62.397,192.897 63.241,192.491 64.066 C 192.086 64.891,191.752 65.795,191.751 66.074 C 191.749 66.353,191.630 66.654,191.485 66.744 C 191.223 66.906,190.489 69.279,190.384 70.304 C 190.240 71.697,192.473 71.608,193.529 70.179 C 194.386 69.020,196.790 68.991,197.292 70.134 C 197.912 71.546,200.509 71.669,200.415 70.282 C 200.383 69.807,200.370 69.808,200.243 70.293 C 199.996 71.240,198.486 70.957,197.601 69.797 C 196.387 68.205,193.347 68.488,192.790 70.245 C 192.581 70.901,190.845 71.079,190.852 70.443 C 190.858 69.845,192.315 65.389,192.960 63.994 C 193.284 63.295,193.548 62.523,193.548 62.279 C 193.548 61.696,194.485 61.215,195.622 61.215 C 196.706 61.215,197.249 61.919,197.767 63.996 C 197.963 64.783,198.242 65.500,198.386 65.589 C 198.798 65.843,198.675 64.748,198.200 63.916 C 197.964 63.503,197.766 62.862,197.760 62.491 C 197.744 61.470,196.713 60.615,195.499 60.615 C 194.849 60.615,194.220 60.844,193.848 61.215 M202.806 60.816 C 202.155 60.989,201.950 61.850,201.999 64.216 L 202.039 66.167 202.234 64.061 C 202.576 60.369,203.800 60.057,206.032 63.091 C 206.791 64.122,207.500 65.034,207.607 65.116 C 207.714 65.199,207.952 65.536,208.135 65.866 C 208.815 67.094,209.298 66.570,209.379 64.516 C 209.485 61.832,209.661 61.215,210.323 61.215 C 211.095 61.215,211.245 61.997,211.245 66.017 C 211.245 71.705,210.630 72.233,207.941 68.854 C 206.303 66.795,205.467 66.345,206.946 68.318 C 209.098 71.187,209.844 71.711,210.941 71.124 C 211.677 70.730,211.901 61.684,211.193 60.975 C 210.031 59.813,208.702 61.348,208.919 63.602 C 209.042 64.882,208.784 66.131,208.485 65.708 C 205.130 60.969,204.447 60.380,202.806 60.816 M214.725 61.087 C 213.877 61.935,214.043 70.336,214.920 70.951 C 216.088 71.769,221.455 71.143,221.455 70.188 C 221.455 70.020,221.577 69.957,221.725 70.049 C 223.146 70.927,224.537 65.503,223.437 63.375 C 222.293 61.163,216.239 59.573,214.725 61.087 M225.893 60.954 C 224.854 61.595,225.269 70.654,226.361 71.152 C 227.239 71.551,228.661 71.022,228.648 70.300 C 228.639 69.797,228.615 69.798,228.223 70.315 C 227.951 70.674,227.515 70.829,226.957 70.765 L 226.107 70.668 226.107 66.017 L 226.107 61.365 226.992 61.265 C 227.581 61.198,228.008 61.342,228.267 61.697 C 228.631 62.195,228.657 62.187,228.657 61.578 C 228.657 60.721,226.910 60.327,225.893 60.954 M233.558 61.213 C 228.133 63.683,229.931 71.434,235.924 71.413 C 238.296 71.405,240.187 69.312,238.203 68.891 C 236.902 68.615,234.959 68.551,234.959 68.784 C 234.959 68.912,235.626 69.017,236.441 69.017 C 238.038 69.017,238.406 69.283,238.109 70.220 C 237.793 71.215,234.318 71.079,232.778 70.012 C 229.886 68.008,230.049 64.034,233.109 61.955 C 234.503 61.008,237.761 60.871,238.208 61.740 C 238.689 62.674,238.288 63.016,236.714 63.016 C 234.932 63.016,234.209 63.354,233.645 64.450 C 232.986 65.729,233.494 68.717,234.369 68.717 C 234.783 68.717,234.727 68.443,234.209 67.924 C 232.552 66.268,234.334 63.174,236.820 63.390 C 238.424 63.530,238.699 63.422,238.971 62.550 C 239.498 60.858,236.153 60.032,233.558 61.213 M161.740 66.017 L 161.740 70.818 161.001 70.818 C 159.797 70.818,159.570 69.944,159.686 65.757 C 159.801 61.617,159.918 61.215,161.008 61.215 L 161.740 61.215 161.740 66.017 M220.936 61.817 C 223.071 62.961,223.406 63.516,223.406 65.912 C 223.406 69.214,221.409 70.818,217.296 70.818 C 214.754 70.818,214.854 71.013,214.854 66.017 C 214.854 63.898,214.936 61.951,215.036 61.690 C 215.324 60.940,219.465 61.029,220.936 61.817 M217.154 63.216 C 216.794 63.576,216.933 68.275,217.314 68.657 C 218.580 69.923,221.155 68.153,221.155 66.017 C 221.155 63.974,218.356 62.015,217.154 63.216 M219.544 63.940 C 221.481 65.137,220.751 68.417,218.548 68.417 C 217.644 68.417,217.254 67.582,217.254 65.646 C 217.254 63.292,217.817 62.873,219.544 63.940 M195.109 64.276 C 194.577 64.807,194.625 65.592,195.162 65.147 C 195.489 64.876,195.612 64.942,195.748 65.462 C 195.983 66.360,195.723 66.679,194.948 66.445 C 194.448 66.294,194.377 66.332,194.642 66.611 C 195.367 67.376,196.104 66.823,196.026 65.572 C 195.942 64.217,195.621 63.764,195.109 64.276 M204.688 65.499 C 204.503 65.685,204.351 66.744,204.351 67.852 C 204.351 71.157,202.947 72.300,202.276 69.542 L 201.965 68.267 202.083 69.567 C 202.221 71.100,202.290 71.193,203.287 71.193 C 204.651 71.193,204.951 70.651,204.951 68.194 C 204.951 66.211,205.006 65.988,205.409 66.323 C 206.121 66.914,206.334 66.381,205.642 65.736 C 205.186 65.311,204.938 65.250,204.688 65.499 M198.667 66.395 C 198.645 67.052,199.928 69.833,200.065 69.424 C 200.119 69.260,199.831 68.392,199.424 67.496 C 199.017 66.600,198.676 66.104,198.667 66.395 M177.903 75.594 C 180.005 76.142,180.469 77.964,178.422 77.632 C 176.065 77.249,175.675 78.712,177.802 79.959 C 182.269 82.577,180.153 86.494,174.869 85.390 C 173.610 85.127,173.324 84.249,174.269 83.546 C 174.750 83.188,174.735 83.160,174.094 83.204 C 172.565 83.309,172.666 85.241,174.231 85.836 C 176.457 86.682,179.140 86.011,180.277 84.324 C 181.401 82.657,180.697 81.188,178.020 79.613 C 176.368 78.642,176.409 78.320,178.185 78.320 C 181.135 78.320,181.188 75.821,178.245 75.485 C 177.054 75.349,177.013 75.361,177.903 75.594 M190.001 75.533 C 184.423 76.597,184.602 85.282,190.217 86.036 C 192.827 86.386,196.253 84.330,196.247 82.418 C 196.246 81.863,196.179 81.899,195.783 82.671 C 193.613 86.901,187.075 86.329,186.462 81.855 C 186.193 79.897,186.553 78.379,187.492 77.504 C 188.278 76.770,188.694 76.552,190.848 75.741 C 191.860 75.359,191.446 75.258,190.001 75.533 M158.846 76.074 C 158.656 76.570,158.701 76.806,159.615 80.084 C 159.954 81.303,160.350 82.450,160.495 82.635 C 160.639 82.820,160.855 83.376,160.973 83.871 C 161.511 86.113,164.764 86.947,165.234 84.963 C 165.337 84.527,165.618 83.945,165.858 83.668 C 166.098 83.392,166.239 82.919,166.172 82.618 C 166.042 82.036,165.041 83.975,165.041 84.808 C 165.041 85.786,162.228 85.318,161.666 84.246 C 160.908 82.800,159.340 77.902,159.340 76.980 C 159.340 75.614,160.790 76.039,161.352 77.569 C 161.594 78.230,161.973 79.242,162.195 79.820 C 162.416 80.398,162.677 81.242,162.775 81.695 C 163.160 83.486,165.005 80.577,165.051 78.107 C 165.066 77.334,166.086 76.219,166.780 76.219 C 167.527 76.219,167.791 77.158,167.307 78.092 C 166.984 78.715,165.941 81.563,165.941 81.824 C 165.941 82.463,166.566 81.641,166.723 80.795 C 166.838 80.176,167.121 79.379,167.352 79.024 C 168.254 77.639,168.016 75.781,166.924 75.675 C 165.873 75.574,164.745 76.872,164.742 78.185 C 164.742 78.523,164.617 78.928,164.465 79.085 C 164.312 79.242,164.070 79.833,163.926 80.400 C 163.605 81.660,162.941 81.992,162.941 80.891 C 162.941 80.463,162.816 79.877,162.665 79.591 C 162.513 79.304,162.092 78.293,161.730 77.344 C 161.040 75.538,159.339 74.789,158.846 76.074 M169.253 76.199 C 168.572 77.472,168.868 84.501,169.641 85.400 C 170.476 86.371,171.761 86.240,172.132 85.146 C 172.862 82.996,172.026 74.836,171.164 75.697 C 171.058 75.804,171.158 76.077,171.386 76.305 C 171.700 76.619,171.800 77.738,171.797 80.896 L 171.793 85.071 170.818 85.165 L 169.842 85.259 169.838 83.515 C 169.836 82.555,169.751 80.674,169.650 79.333 C 169.482 77.112,169.522 76.839,170.104 76.257 C 170.722 75.639,170.724 75.619,170.153 75.619 C 169.829 75.619,169.424 75.880,169.253 76.199 M174.252 76.635 C 172.201 78.513,173.404 81.310,176.713 82.361 C 177.869 82.728,177.459 83.419,176.069 83.445 C 174.904 83.466,174.861 83.493,175.573 83.754 C 177.387 84.420,178.732 82.918,177.044 82.112 C 173.641 80.487,172.306 76.607,175.117 76.510 C 175.787 76.486,176.607 75.619,175.960 75.619 C 175.631 75.619,174.862 76.076,174.252 76.635 M182.028 76.094 C 181.431 77.649,181.847 85.208,182.555 85.672 C 184.475 86.930,185.164 85.527,185.116 80.458 C 185.079 76.525,184.902 75.802,183.938 75.664 L 183.205 75.559 183.886 76.114 C 184.544 76.650,184.565 76.815,184.482 80.870 L 184.396 85.071 183.421 85.165 L 182.446 85.259 182.446 80.799 C 182.446 77.730,182.558 76.227,182.806 75.979 C 183.086 75.699,183.060 75.619,182.688 75.619 C 182.425 75.619,182.128 75.832,182.028 76.094 M192.516 76.059 C 192.836 76.302,193.256 76.504,193.449 76.510 C 193.872 76.521,195.715 78.429,196.002 79.153 C 196.180 79.602,196.208 79.591,196.218 79.070 C 196.237 78.027,193.690 75.619,192.568 75.619 C 191.945 75.619,191.944 75.627,192.516 76.059 M197.760 76.199 C 197.115 77.404,197.369 85.157,198.065 85.530 C 198.793 85.919,199.907 85.811,200.063 85.336 C 200.134 85.121,199.887 85.055,199.380 85.152 C 198.205 85.376,198.059 84.884,198.054 80.667 C 198.047 74.832,199.082 74.401,202.306 78.898 C 204.309 81.692,204.481 81.693,204.586 78.920 C 204.679 76.443,205.138 75.677,206.193 76.241 C 207.021 76.684,207.052 85.080,206.227 85.277 C 205.025 85.564,203.965 84.565,200.697 80.064 C 200.193 79.370,200.193 79.370,200.234 80.024 C 200.256 80.384,200.367 80.622,200.479 80.552 C 200.592 80.482,200.893 80.865,201.148 81.402 C 201.403 81.940,201.971 82.715,202.410 83.125 C 202.849 83.535,203.391 84.223,203.615 84.654 C 204.186 85.751,205.649 86.330,206.471 85.783 C 207.041 85.404,207.097 85.027,207.184 81.020 C 207.290 76.079,207.164 75.619,205.711 75.619 C 204.545 75.619,204.430 75.832,204.109 78.582 L 203.901 80.364 202.133 77.992 C 200.201 75.399,198.550 74.722,197.760 76.199 M213.024 76.444 C 212.843 76.921,212.751 78.956,212.807 81.270 C 212.929 86.344,212.715 86.142,217.904 86.071 C 222.142 86.012,221.962 86.061,222.916 84.696 C 223.943 83.226,225.862 83.347,226.659 84.932 C 227.204 86.016,228.574 86.338,229.347 85.565 C 229.692 85.220,229.862 84.833,229.725 84.705 C 229.587 84.576,229.415 84.640,229.341 84.846 C 229.087 85.559,227.172 85.300,226.872 84.512 C 226.324 83.069,223.635 82.933,222.627 84.296 C 221.894 85.288,221.266 85.537,220.352 85.199 L 219.721 84.965 220.503 83.368 C 221.500 81.328,222.045 79.824,222.051 79.095 C 222.057 78.394,221.806 78.587,221.671 79.388 C 221.616 79.708,221.343 80.402,221.064 80.930 C 220.784 81.459,220.555 82.090,220.555 82.334 C 220.555 83.083,219.740 83.651,218.847 83.527 C 218.035 83.414,218.029 83.422,218.680 83.761 C 219.459 84.167,219.575 85.073,218.880 85.339 C 218.127 85.628,214.569 85.551,213.974 85.232 C 212.722 84.562,212.939 76.449,214.213 76.269 C 215.314 76.113,215.503 76.555,215.491 79.259 C 215.480 81.902,215.667 83.420,216.003 83.421 C 216.281 83.422,215.961 76.457,215.661 75.994 C 215.168 75.233,213.369 75.540,213.024 76.444 M222.820 76.797 C 221.967 78.147,221.917 78.320,222.371 78.320 C 222.545 78.320,222.824 77.927,222.991 77.448 C 223.979 74.613,226.733 76.307,227.613 80.292 C 227.875 81.480,229.044 84.021,229.328 84.021 C 229.633 84.021,229.622 83.496,229.314 83.306 C 229.180 83.223,228.750 82.197,228.359 81.026 C 226.498 75.454,224.588 73.995,222.820 76.797 M230.870 76.059 C 230.777 76.301,230.771 76.673,230.856 76.884 C 230.959 77.141,231.018 77.105,231.034 76.779 C 231.079 75.849,234.395 75.588,236.262 76.369 C 237.804 77.013,238.147 77.805,237.503 79.234 C 237.003 80.343,237.007 80.404,237.624 81.270 C 238.712 82.798,237.914 85.221,236.323 85.221 C 236.068 85.221,235.859 85.326,235.859 85.454 C 235.859 85.622,231.634 85.432,231.154 85.243 C 231.124 85.231,231.041 84.917,230.969 84.546 C 230.859 83.972,230.833 83.996,230.799 84.704 C 230.747 85.758,231.599 86.122,234.118 86.122 C 237.800 86.122,239.901 83.625,238.213 81.255 C 237.650 80.464,237.611 80.221,237.913 79.386 C 238.833 76.840,237.462 75.619,233.682 75.619 C 231.636 75.619,231.001 75.718,230.870 76.059 M190.067 78.148 C 187.890 79.096,188.229 82.913,190.548 83.559 C 191.182 83.735,191.148 83.672,190.323 83.148 C 188.369 81.909,189.030 78.320,191.211 78.320 C 193.457 78.320,194.206 81.923,192.198 83.062 C 191.734 83.326,191.706 83.405,192.077 83.412 C 193.813 83.445,194.157 79.259,192.498 78.289 C 191.399 77.647,191.239 77.638,190.067 78.148 M233.658 77.919 C 233.359 78.219,233.417 79.520,233.730 79.520 C 233.880 79.520,233.932 79.250,233.845 78.920 C 233.728 78.471,233.836 78.320,234.274 78.320 C 235.069 78.320,235.322 78.632,234.919 79.117 C 234.715 79.363,234.702 79.520,234.885 79.520 C 235.050 79.520,235.366 79.303,235.586 79.037 C 236.216 78.278,234.371 77.207,233.658 77.919 M224.066 79.109 C 223.629 79.547,223.827 80.218,224.282 79.840 C 224.618 79.561,224.778 79.601,225.040 80.028 C 225.335 80.508,225.363 80.485,225.289 79.823 C 225.209 79.099,224.494 78.682,224.066 79.109 M223.891 81.095 C 223.862 81.785,223.979 81.920,224.606 81.920 C 225.191 81.920,225.351 81.772,225.333 81.245 C 225.320 80.874,225.241 80.739,225.158 80.945 C 224.934 81.499,224.221 81.401,224.063 80.795 C 223.978 80.472,223.912 80.588,223.891 81.095 M233.658 81.820 C 233.283 82.196,233.457 83.439,233.909 83.613 C 234.590 83.874,235.861 83.466,236.071 82.918 C 236.394 82.076,234.339 81.140,233.658 81.820 M235.409 82.821 C 235.409 83.089,235.075 83.309,234.584 83.366 C 233.912 83.443,233.758 83.342,233.758 82.821 C 233.758 82.300,233.912 82.198,234.584 82.276 C 235.075 82.332,235.409 82.553,235.409 82.821 M158.947 90.398 C 158.477 90.744,158.434 92.830,158.364 118.080 L 158.290 145.386 155.814 141.690 C 154.452 139.658,153.338 138.123,153.338 138.280 C 153.338 138.658,153.904 139.690,154.996 141.303 C 155.487 142.028,156.026 142.838,156.194 143.104 C 157.868 145.754,158.262 146.192,158.479 145.642 C 158.599 145.336,158.707 132.906,158.719 118.018 L 158.740 90.950 159.854 90.741 C 161.243 90.480,178.014 90.872,178.314 91.172 C 178.544 91.402,178.667 209.130,178.437 209.360 C 178.235 209.562,177.062 208.228,176.408 207.052 C 176.087 206.474,175.425 205.394,174.938 204.651 C 174.452 203.908,173.963 203.098,173.853 202.851 C 173.742 202.603,173.476 202.193,173.260 201.940 C 173.044 201.687,172.446 200.691,171.932 199.727 C 171.418 198.764,170.737 197.697,170.420 197.356 C 170.102 197.015,169.842 196.621,169.842 196.480 C 169.842 196.340,169.594 195.859,169.291 195.412 C 166.766 191.691,166.217 190.822,165.955 190.134 C 165.791 189.701,165.518 189.347,165.349 189.347 C 165.180 189.347,165.041 189.196,165.041 189.010 C 165.041 188.825,164.501 187.864,163.841 186.875 C 163.181 185.887,162.641 185.005,162.641 184.915 C 162.641 184.826,162.304 184.312,161.893 183.773 C 161.483 183.234,160.718 182.006,160.194 181.044 C 159.670 180.082,159.144 179.227,159.024 179.145 C 158.808 178.995,157.996 177.692,157.060 175.994 C 156.788 175.499,156.134 174.554,155.609 173.893 C 155.084 173.233,154.347 172.187,153.972 171.568 C 153.268 170.407,152.829 170.065,153.164 170.938 C 153.497 171.806,155.230 174.344,155.489 174.344 C 155.627 174.344,155.739 174.480,155.739 174.646 C 155.739 174.813,156.511 176.130,157.456 177.572 C 158.400 179.015,159.375 180.600,159.622 181.095 C 159.870 181.590,160.920 183.243,161.957 184.769 C 162.993 186.294,163.841 187.671,163.841 187.829 C 163.841 187.988,164.011 188.225,164.218 188.357 C 164.426 188.489,164.984 189.323,165.458 190.211 C 165.933 191.099,166.843 192.611,167.482 193.572 C 168.120 194.533,168.642 195.400,168.642 195.497 C 168.642 195.595,169.164 196.381,169.802 197.244 C 170.439 198.107,171.263 199.418,171.633 200.157 C 172.412 201.715,174.389 204.755,174.719 204.901 C 174.842 204.956,174.944 205.168,174.944 205.373 C 174.944 205.577,175.345 206.275,175.836 206.923 C 176.326 207.572,176.731 208.209,176.736 208.339 C 176.747 208.652,178.009 210.354,178.226 210.348 C 179.243 210.320,179.226 211.385,179.182 150.445 L 179.139 91.073 178.509 90.548 C 177.697 89.871,159.844 89.735,158.947 90.398 M202.926 90.244 C 203.875 90.304,205.428 90.304,206.377 90.244 C 207.326 90.185,206.549 90.136,204.651 90.136 C 202.753 90.136,201.977 90.185,202.926 90.244 M219.205 90.422 C 218.525 90.934,218.074 208.113,218.745 209.877 C 219.320 211.391,220.366 210.195,224.019 203.846 C 224.761 202.556,226.388 199.947,227.634 198.050 C 228.880 196.152,229.983 194.396,230.084 194.149 C 230.186 193.901,231.304 192.078,232.569 190.098 C 233.835 188.117,235.045 186.159,235.259 185.746 C 235.474 185.334,235.739 184.929,235.849 184.846 C 235.959 184.764,236.504 183.886,237.060 182.896 C 237.996 181.232,239.101 179.504,239.460 179.145 C 239.764 178.841,241.560 176.121,241.560 175.965 C 241.560 175.876,241.898 175.361,242.311 174.820 C 242.723 174.279,243.061 173.698,243.061 173.529 C 243.061 173.360,243.852 172.022,244.819 170.557 C 248.418 165.101,249.362 163.604,249.362 163.354 C 249.362 163.214,249.954 162.219,250.677 161.144 C 253.034 157.640,255.852 153.199,256.039 152.693 C 256.140 152.421,257.380 150.445,258.794 148.303 C 260.208 146.161,261.365 144.319,261.365 144.210 C 261.365 144.101,261.623 143.646,261.937 143.199 C 262.950 141.758,266.966 135.507,267.363 134.753 C 267.575 134.350,267.872 133.878,268.023 133.702 C 268.174 133.527,268.798 132.550,269.408 131.530 C 271.844 127.463,273.208 125.274,273.396 125.131 C 273.881 124.763,275.469 121.960,275.469 121.472 C 275.469 121.174,275.604 120.930,275.769 120.930 C 275.934 120.930,276.069 120.593,276.069 120.180 C 276.069 119.530,275.939 119.432,275.094 119.449 C 274.209 119.466,274.181 119.493,274.794 119.739 C 275.770 120.132,275.136 122.060,273.160 124.709 C 272.780 125.220,272.468 125.780,272.468 125.953 C 272.468 126.126,272.266 126.345,272.018 126.440 C 271.770 126.535,271.568 126.768,271.568 126.957 C 271.568 127.147,271.062 127.990,270.443 128.832 C 269.285 130.406,268.567 131.630,268.567 132.028 C 268.567 132.215,266.416 135.635,265.639 136.684 C 265.196 137.282,263.630 139.615,263.327 140.129 C 263.156 140.420,262.762 141.107,262.452 141.657 C 262.141 142.206,261.703 142.841,261.476 143.068 C 261.250 143.294,261.065 143.620,261.065 143.793 C 261.065 143.966,259.926 145.813,258.533 147.898 C 257.140 149.982,255.856 152.026,255.679 152.438 C 255.308 153.303,254.372 154.834,253.187 156.517 C 251.536 158.859,249.741 161.710,248.928 163.283 C 248.471 164.168,247.869 165.161,247.589 165.491 C 247.310 165.821,246.733 166.632,246.306 167.292 C 243.884 171.041,243.191 172.167,242.887 172.843 C 242.701 173.256,241.618 174.984,240.479 176.684 C 239.341 178.383,238.140 180.274,237.809 180.885 C 237.479 181.496,237.116 182.066,237.003 182.152 C 236.890 182.238,236.653 182.643,236.477 183.052 C 236.301 183.461,235.694 184.404,235.128 185.146 C 234.561 185.889,234.089 186.619,234.078 186.768 C 234.067 186.918,233.721 187.483,233.308 188.024 C 232.896 188.565,232.558 189.145,232.558 189.312 C 232.558 189.480,232.389 189.726,232.183 189.858 C 231.977 189.990,231.661 190.368,231.481 190.698 C 230.093 193.245,229.333 194.517,228.112 196.340 C 226.032 199.442,225.383 200.496,224.903 201.548 C 224.666 202.069,224.366 202.542,224.239 202.598 C 224.111 202.655,223.768 203.173,223.477 203.751 C 223.187 204.329,222.714 205.153,222.427 205.583 C 222.140 206.014,221.397 207.134,220.775 208.073 C 220.153 209.013,219.511 209.699,219.349 209.599 C 218.738 209.221,218.968 90.925,219.580 90.910 C 223.379 90.817,238.703 90.966,238.834 91.097 C 238.931 91.194,239.008 103.347,239.007 118.105 C 239.005 132.862,239.093 144.936,239.203 144.936 C 239.314 144.936,239.333 145.206,239.247 145.536 C 239.160 145.866,239.236 146.137,239.414 146.137 C 239.781 146.137,241.260 144.074,241.260 143.563 C 241.260 143.379,241.527 142.988,241.853 142.693 C 242.179 142.398,242.530 141.889,242.634 141.562 C 242.738 141.235,243.522 139.936,244.376 138.676 C 245.230 137.415,246.331 135.724,246.821 134.917 C 247.311 134.110,248.010 132.962,248.374 132.366 C 249.151 131.096,249.245 130.608,248.612 131.133 C 248.365 131.338,248.162 131.637,248.162 131.796 C 248.162 131.955,247.781 132.647,247.316 133.334 C 244.798 137.054,243.244 139.551,241.260 143.060 C 240.656 144.130,239.802 145.078,239.613 144.889 C 239.529 144.805,239.457 132.717,239.453 118.028 C 239.448 96.521,239.371 91.215,239.055 90.783 C 238.497 90.020,220.181 89.687,219.205 90.422 M188.982 91.409 C 189.096 92.012,206.733 92.221,208.527 91.641 C 210.463 91.015,207.673 90.773,198.541 90.773 L 188.861 90.773 188.982 91.409 M121.696 119.705 C 121.422 120.148,122.015 121.386,123.687 123.862 C 124.548 125.138,126.107 127.599,127.151 129.332 C 130.155 134.320,131.500 136.441,132.708 138.099 C 133.327 138.948,133.833 139.799,133.833 139.989 C 133.833 140.180,134.374 141.107,135.034 142.049 C 135.694 142.992,136.234 143.812,136.234 143.872 C 136.234 143.932,137.112 145.294,138.185 146.898 C 139.257 148.503,140.135 149.887,140.135 149.975 C 140.135 150.173,141.392 152.185,144.242 156.548 C 145.449 158.395,146.437 160.023,146.437 160.165 C 146.437 160.307,146.786 160.889,147.213 161.457 C 147.640 162.026,148.109 162.794,148.256 163.166 C 148.402 163.537,148.661 163.841,148.830 163.841 C 148.999 163.841,149.137 164.000,149.137 164.194 C 149.137 164.388,149.723 165.435,150.438 166.520 C 151.153 167.605,151.987 168.894,152.291 169.386 C 152.594 169.878,152.895 170.121,152.960 169.926 C 153.025 169.732,152.816 169.194,152.495 168.732 C 151.658 167.526,147.223 160.834,146.994 160.430 C 146.888 160.243,146.654 159.752,146.475 159.340 C 146.084 158.438,145.334 157.228,143.103 153.899 C 142.178 152.518,141.169 150.915,140.861 150.338 C 140.170 149.039,138.879 146.966,136.956 144.069 C 136.146 142.850,135.252 141.499,134.968 141.069 C 134.685 140.638,134.262 139.880,134.029 139.385 C 133.596 138.464,131.519 135.233,129.978 133.083 C 129.504 132.423,128.624 130.957,128.022 129.825 C 127.420 128.693,126.166 126.668,125.237 125.324 C 122.645 121.576,121.986 120.306,122.475 119.996 C 123.159 119.563,140.831 119.664,141.432 120.105 C 141.713 120.311,142.380 121.172,142.914 122.017 C 143.449 122.863,144.535 124.550,145.329 125.768 C 146.122 126.986,147.608 129.314,148.630 130.941 C 149.651 132.569,150.759 134.324,151.091 134.842 C 151.423 135.360,151.963 136.222,152.291 136.757 C 152.620 137.293,152.989 137.731,153.113 137.733 C 153.461 137.735,153.386 137.479,152.780 136.597 C 152.472 136.150,151.351 134.434,150.288 132.783 C 149.225 131.133,148.092 129.377,147.772 128.882 C 147.451 128.387,147.024 127.644,146.823 127.232 C 146.350 126.264,145.474 124.862,143.462 121.856 L 141.838 119.430 131.852 119.430 C 126.128 119.430,121.793 119.547,121.696 119.705 M254.923 121.086 C 254.340 121.997,253.863 122.804,253.863 122.880 C 253.863 122.956,253.324 123.730,252.664 124.600 C 252.005 125.470,251.465 126.292,251.464 126.427 C 251.463 126.561,251.125 127.114,250.713 127.655 C 250.300 128.196,249.962 128.746,249.962 128.877 C 249.962 129.009,249.741 129.278,249.471 129.475 C 249.201 129.673,249.039 130.012,249.111 130.228 C 249.259 130.674,250.821 128.599,252.325 125.956 C 252.865 125.008,253.423 124.231,253.565 124.231 C 253.707 124.231,253.913 123.947,254.023 123.600 C 254.263 122.846,255.449 120.987,256.154 120.260 C 256.607 119.793,257.566 119.730,265.389 119.655 L 274.119 119.570 265.050 119.500 L 255.982 119.430 254.923 121.086 M208.147 197.495 C 207.756 203.004,207.984 208.453,208.590 208.078 C 208.928 207.870,208.935 194.749,208.597 194.749 C 208.457 194.749,208.254 195.985,208.147 197.495 " stroke="none" fill="#969697" fill-rule="evenodd"></path><path id="path5" d="M176.669 61.732 C 177.206 61.799,178.083 61.799,178.620 61.732 C 179.156 61.666,178.717 61.611,177.644 61.611 C 176.572 61.611,176.133 61.666,176.669 61.732 M216.579 61.732 C 217.116 61.799,217.993 61.799,218.530 61.732 C 219.066 61.666,218.627 61.611,217.554 61.611 C 216.482 61.611,216.043 61.666,216.579 61.732 M237.359 61.793 C 237.759 62.080,237.759 62.148,237.359 62.411 C 236.978 62.662,236.992 62.707,237.456 62.711 C 238.116 62.717,238.034 61.776,237.359 61.592 C 236.959 61.483,236.959 61.506,237.359 61.793 M209.787 62.491 C 209.815 63.032,209.850 63.057,209.964 62.619 C 210.047 62.297,210.280 62.138,210.529 62.234 C 210.762 62.324,210.953 62.266,210.953 62.106 C 210.953 61.946,210.683 61.815,210.353 61.815 C 209.920 61.815,209.762 62.004,209.787 62.491 M215.209 65.924 C 215.179 68.266,215.255 70.245,215.379 70.322 C 215.503 70.399,215.568 69.158,215.524 67.564 C 215.377 62.217,215.265 61.633,215.209 65.924 M232.765 62.791 C 231.831 63.716,231.827 63.728,232.694 63.018 C 233.197 62.607,233.737 62.168,233.893 62.043 C 234.050 61.918,234.082 61.815,233.964 61.815 C 233.846 61.815,233.306 62.254,232.765 62.791 M166.095 63.013 C 165.622 63.506,165.293 63.958,165.363 64.016 C 165.434 64.075,165.876 63.671,166.346 63.119 C 167.408 61.873,167.250 61.806,166.095 63.013 M226.373 65.866 C 226.374 68.012,226.421 68.850,226.479 67.729 C 226.537 66.609,226.537 64.853,226.478 63.828 C 226.420 62.804,226.373 63.721,226.373 65.866 M227.821 65.951 C 227.760 69.775,227.730 69.948,227.082 70.208 L 226.407 70.480 227.076 70.499 C 227.983 70.524,228.100 69.888,227.983 65.566 L 227.886 61.965 227.821 65.951 M161.557 66.167 C 161.557 68.312,161.605 69.150,161.663 68.030 C 161.721 66.909,161.721 65.153,161.662 64.129 C 161.604 63.104,161.556 64.021,161.557 66.167 M176.944 62.616 C 176.834 62.726,176.746 62.962,176.749 63.141 C 176.752 63.361,176.825 63.356,176.974 63.125 C 177.095 62.938,177.464 62.718,177.794 62.635 C 178.375 62.490,178.374 62.484,177.769 62.450 C 177.426 62.431,177.054 62.506,176.944 62.616 M210.751 64.666 C 210.752 65.821,210.807 66.257,210.872 65.635 C 210.937 65.012,210.936 64.067,210.869 63.534 C 210.803 63.001,210.750 63.511,210.751 64.666 M166.533 64.532 C 166.352 64.871,166.246 65.352,166.298 65.601 C 166.349 65.850,166.540 65.573,166.722 64.985 C 167.093 63.783,167.023 63.616,166.533 64.532 M221.537 66.017 C 221.537 66.759,221.596 67.063,221.667 66.692 C 221.739 66.320,221.739 65.713,221.667 65.341 C 221.596 64.970,221.537 65.274,221.537 66.017 M231.144 66.167 C 231.146 66.992,231.204 67.294,231.273 66.838 C 231.342 66.381,231.340 65.706,231.269 65.337 C 231.198 64.968,231.141 65.341,231.144 66.167 M203.854 67.667 C 203.855 68.987,203.908 69.490,203.971 68.784 C 204.034 68.078,204.034 66.998,203.969 66.384 C 203.905 65.769,203.853 66.347,203.854 67.667 M179.595 66.017 C 179.493 66.182,178.961 66.317,178.414 66.317 C 177.817 66.317,177.259 66.527,177.020 66.842 C 176.682 67.288,176.686 67.311,177.044 66.992 C 177.275 66.785,177.893 66.617,178.418 66.617 C 178.942 66.617,179.539 66.414,179.745 66.167 C 179.950 65.919,180.042 65.716,179.949 65.716 C 179.856 65.716,179.697 65.851,179.595 66.017 M184.851 68.146 C 184.843 68.979,185.863 69.620,187.120 69.572 L 188.297 69.527 186.954 69.347 C 185.921 69.209,185.523 68.994,185.233 68.417 C 184.997 67.950,184.853 67.847,184.851 68.146 M198.813 68.492 C 198.925 68.863,199.141 69.299,199.292 69.461 C 199.443 69.622,199.414 69.318,199.229 68.785 C 198.849 67.695,198.498 67.447,198.813 68.492 M231.358 68.211 C 231.358 68.263,231.797 68.701,232.333 69.186 L 233.308 70.068 232.427 69.092 C 231.605 68.183,231.358 67.979,231.358 68.211 M169.167 69.529 C 169.539 69.601,170.146 69.601,170.518 69.529 C 170.889 69.458,170.585 69.399,169.842 69.399 C 169.100 69.399,168.796 69.458,169.167 69.529 M178.644 69.537 C 179.492 69.625,179.751 69.770,179.629 70.087 C 179.435 70.592,179.915 70.671,180.216 70.184 C 180.518 69.695,179.746 69.320,178.545 69.372 L 177.494 69.418 178.644 69.537 M192.438 69.723 C 192.306 69.947,191.995 70.206,191.748 70.300 C 191.385 70.437,191.397 70.475,191.812 70.494 C 192.095 70.507,192.472 70.248,192.648 69.917 C 193.004 69.252,192.818 69.080,192.438 69.723 M175.319 69.917 C 175.386 70.165,175.768 70.393,176.168 70.423 C 176.741 70.467,176.767 70.443,176.294 70.313 C 175.964 70.222,175.582 69.995,175.446 69.808 C 175.282 69.583,175.239 69.620,175.319 69.917 M170.178 76.626 C 169.935 76.919,169.853 78.260,169.918 80.912 L 170.012 84.771 170.077 80.813 C 170.141 76.947,170.417 75.880,171.099 76.856 C 171.341 77.201,171.369 77.198,171.272 76.838 C 171.106 76.225,170.593 76.126,170.178 76.626 M205.071 76.941 C 204.982 77.173,204.956 77.814,205.014 78.366 C 205.106 79.246,205.136 79.194,205.262 77.944 C 205.409 76.483,205.355 76.199,205.071 76.941 M213.831 76.775 C 213.730 76.939,213.907 76.997,214.243 76.909 C 214.797 76.764,214.839 76.944,214.933 79.863 L 215.034 82.971 215.019 79.824 C 215.004 76.764,214.553 75.606,213.831 76.775 M177.719 77.326 C 178.008 77.402,178.481 77.402,178.770 77.326 C 179.059 77.251,178.822 77.189,178.245 77.189 C 177.667 77.189,177.431 77.251,177.719 77.326 M198.465 80.720 C 198.465 82.783,198.513 83.627,198.572 82.596 C 198.630 81.564,198.630 79.876,198.572 78.845 C 198.513 77.813,198.465 78.657,198.465 80.720 M184.059 81.020 C 184.059 82.918,184.108 83.695,184.168 82.746 C 184.227 81.797,184.227 80.244,184.168 79.295 C 184.108 78.346,184.059 79.122,184.059 81.020 M235.900 78.680 C 235.877 79.125,235.623 79.628,235.334 79.796 C 235.045 79.964,234.961 80.106,235.147 80.111 C 235.715 80.126,236.213 79.293,236.073 78.561 C 235.954 77.937,235.937 77.949,235.900 78.680 M186.743 80.720 C 186.743 81.793,186.797 82.232,186.864 81.695 C 186.930 81.159,186.930 80.281,186.864 79.745 C 186.797 79.209,186.743 79.647,186.743 80.720 M188.543 80.720 C 188.543 81.793,188.598 82.232,188.664 81.695 C 188.731 81.159,188.731 80.281,188.664 79.745 C 188.598 79.209,188.543 79.647,188.543 80.720 M193.938 80.720 C 193.938 81.628,193.995 81.999,194.063 81.545 C 194.132 81.092,194.132 80.349,194.063 79.895 C 193.995 79.441,193.938 79.812,193.938 80.720 M204.951 80.246 C 204.951 81.721,204.677 82.004,203.790 81.445 L 203.001 80.948 203.693 81.659 C 204.372 82.357,204.394 82.359,204.819 81.788 C 205.222 81.246,205.437 79.520,205.101 79.520 C 205.019 79.520,204.951 79.846,204.951 80.246 M225.649 80.781 C 225.569 81.558,225.615 82.082,225.751 81.946 C 225.886 81.810,225.952 81.175,225.896 80.535 L 225.794 79.370 225.649 80.781 M235.895 81.770 C 236.162 82.101,236.455 82.573,236.546 82.821 C 236.687 83.203,236.715 83.198,236.735 82.792 C 236.749 82.529,236.455 82.056,236.084 81.742 C 235.415 81.175,235.413 81.175,235.895 81.770 M228.182 83.373 C 228.774 84.517,228.782 84.921,228.215 84.921 C 227.971 84.921,227.563 84.516,227.307 84.021 C 227.051 83.526,226.774 83.121,226.691 83.121 C 226.367 83.121,227.516 84.963,227.943 85.127 C 229.040 85.547,229.085 83.306,227.993 82.631 C 227.836 82.534,227.921 82.868,228.182 83.373 M221.913 84.298 C 221.804 84.641,221.458 84.921,221.144 84.921 C 220.737 84.921,220.622 84.771,220.743 84.396 C 220.881 83.968,220.855 83.951,220.603 84.307 C 220.211 84.861,220.431 85.221,221.162 85.221 C 221.709 85.221,222.564 84.129,222.257 83.823 C 222.176 83.742,222.021 83.956,221.913 84.298 M233.717 84.289 C 234.089 84.525,235.259 84.409,235.259 84.136 C 235.259 84.073,234.820 84.023,234.284 84.026 C 233.621 84.029,233.439 84.113,233.717 84.289 M193.452 84.518 C 193.343 84.626,192.747 84.813,192.126 84.933 C 191.058 85.141,191.047 85.154,191.916 85.187 C 192.420 85.206,193.096 85.023,193.416 84.781 C 193.736 84.538,193.920 84.336,193.823 84.331 C 193.727 84.325,193.560 84.410,193.452 84.518 M236.594 84.592 C 236.437 84.741,236.039 84.928,235.709 85.007 C 235.140 85.144,235.142 85.153,235.747 85.186 C 236.098 85.206,236.554 85.019,236.759 84.771 C 237.167 84.280,237.052 84.156,236.594 84.592 M163.691 84.921 L 162.791 85.150 163.598 85.186 C 164.042 85.205,164.489 85.086,164.591 84.921 C 164.693 84.756,164.735 84.637,164.684 84.657 C 164.633 84.676,164.186 84.795,163.691 84.921 M174.300 84.997 C 174.451 85.148,174.894 85.222,175.284 85.160 C 175.885 85.066,175.843 85.024,175.009 84.886 C 174.413 84.787,174.133 84.831,174.300 84.997 M215.979 85.138 C 216.515 85.205,217.393 85.205,217.929 85.138 C 218.466 85.072,218.027 85.017,216.954 85.017 C 215.881 85.017,215.443 85.072,215.979 85.138 M232.187 85.133 C 232.560 85.205,233.100 85.203,233.387 85.127 C 233.674 85.052,233.368 84.994,232.708 84.997 C 232.048 85.000,231.813 85.062,232.187 85.133 M169.017 91.143 C 169.801 91.205,171.084 91.205,171.868 91.143 C 172.652 91.081,172.011 91.031,170.443 91.031 C 168.875 91.031,168.233 91.081,169.017 91.143 M230.697 91.146 C 232.066 91.202,234.227 91.202,235.498 91.146 C 236.769 91.089,235.649 91.044,233.008 91.044 C 230.368 91.045,229.327 91.090,230.697 91.146 M175.694 91.494 L 177.794 91.673 177.975 93.623 L 178.156 95.574 178.125 93.473 L 178.095 91.373 175.844 91.343 L 173.593 91.314 175.694 91.494 M178.074 103.526 C 178.074 107.569,178.117 109.224,178.169 107.202 C 178.221 105.180,178.221 101.872,178.169 99.850 C 178.117 97.828,178.074 99.482,178.074 103.526 M219.471 105.776 C 219.472 107.922,219.520 108.760,219.578 107.639 C 219.636 106.519,219.635 104.763,219.577 103.738 C 219.518 102.714,219.471 103.631,219.471 105.776 M219.467 113.578 C 219.468 115.394,219.517 116.098,219.577 115.143 C 219.637 114.188,219.636 112.702,219.576 111.842 C 219.515 110.982,219.466 111.763,219.467 113.578 M219.500 153.038 C 219.500 172.431,219.536 180.364,219.580 170.668 C 219.624 160.971,219.624 145.105,219.580 135.409 C 219.536 125.713,219.500 133.646,219.500 153.038 M260.090 120.242 C 260.461 120.313,261.069 120.313,261.440 120.242 C 261.812 120.170,261.508 120.112,260.765 120.112 C 260.023 120.112,259.719 120.170,260.090 120.242 M264.601 120.252 C 265.473 120.312,266.824 120.312,267.602 120.250 C 268.380 120.189,267.667 120.139,266.017 120.140 C 264.366 120.140,263.729 120.191,264.601 120.252 M269.992 120.242 C 270.364 120.313,270.971 120.313,271.343 120.242 C 271.714 120.170,271.410 120.112,270.668 120.112 C 269.925 120.112,269.621 120.170,269.992 120.242 M272.997 120.242 C 273.370 120.314,273.910 120.311,274.197 120.236 C 274.484 120.161,274.179 120.102,273.518 120.106 C 272.858 120.109,272.623 120.170,272.997 120.242 M144.035 124.756 C 144.428 125.293,144.796 125.731,144.853 125.731 C 145.081 125.731,144.337 124.606,143.845 124.206 C 143.521 123.943,143.593 124.153,144.035 124.756 M151.494 136.609 C 152.029 137.393,152.523 138.035,152.592 138.035 C 152.829 138.035,151.507 135.982,151.014 135.583 C 150.742 135.363,150.958 135.825,151.494 136.609 M242.236 142.848 C 241.288 144.017,241.389 144.286,242.348 143.146 C 242.781 142.631,243.085 142.166,243.023 142.112 C 242.961 142.059,242.607 142.389,242.236 142.848 M138.336 145.411 C 138.337 145.563,138.686 146.092,139.111 146.587 L 139.885 147.487 139.207 146.437 C 138.337 145.089,138.334 145.086,138.336 145.411 M258.365 147.037 C 258.012 147.532,257.791 147.937,257.874 147.937 C 257.956 147.937,258.312 147.532,258.665 147.037 C 259.017 146.542,259.238 146.137,259.156 146.137 C 259.073 146.137,258.717 146.542,258.365 147.037 M255.952 150.655 C 255.592 151.160,255.348 151.623,255.410 151.684 C 255.471 151.745,255.824 151.332,256.195 150.766 C 257.032 149.490,256.842 149.404,255.952 150.655 M251.924 157.115 C 251.644 157.542,251.467 157.943,251.530 158.006 C 251.593 158.069,251.881 157.720,252.171 157.230 C 252.817 156.135,252.624 156.046,251.924 157.115 M146.756 159.045 C 146.737 159.501,148.118 161.740,148.418 161.740 C 148.506 161.740,148.300 161.349,147.959 160.872 C 147.619 160.394,147.213 159.685,147.058 159.296 C 146.900 158.903,146.766 158.792,146.756 159.045 M247.783 164.218 L 247.253 165.191 247.858 164.483 C 248.372 163.880,248.647 163.236,248.387 163.243 C 248.346 163.244,248.074 163.683,247.783 164.218 M178.082 178.545 C 178.082 185.559,178.121 188.428,178.169 184.921 C 178.217 181.414,178.217 175.675,178.169 172.168 C 178.121 168.661,178.082 171.530,178.082 178.545 M161.713 182.995 C 161.875 183.298,162.243 183.737,162.532 183.971 C 162.856 184.234,162.783 184.024,162.342 183.421 C 161.553 182.344,161.258 182.144,161.713 182.995 M235.259 183.946 C 234.906 184.441,234.685 184.846,234.768 184.846 C 234.850 184.846,235.206 184.441,235.559 183.946 C 235.911 183.451,236.132 183.046,236.050 183.046 C 235.967 183.046,235.611 183.451,235.259 183.946 M231.472 189.722 C 230.439 191.475,230.372 191.625,230.898 190.998 C 231.508 190.272,232.033 189.347,231.836 189.347 C 231.758 189.347,231.594 189.516,231.472 189.722 M219.437 197.149 C 219.437 197.892,219.495 198.196,219.567 197.824 C 219.638 197.453,219.638 196.845,219.567 196.474 C 219.495 196.103,219.437 196.407,219.437 197.149 M226.856 197.224 C 226.414 197.828,226.342 198.037,226.666 197.774 C 227.158 197.375,227.902 196.249,227.674 196.249 C 227.617 196.249,227.248 196.688,226.856 197.224 M219.424 200.450 C 219.424 201.028,219.486 201.264,219.562 200.975 C 219.637 200.686,219.637 200.214,219.562 199.925 C 219.486 199.636,219.424 199.872,219.424 200.450 M178.334 201.350 C 178.334 202.258,178.391 202.629,178.459 202.176 C 178.528 201.722,178.528 200.979,178.459 200.525 C 178.391 200.071,178.334 200.443,178.334 201.350 M178.240 206.813 C 178.160 207.754,178.204 208.414,178.338 208.280 C 178.471 208.146,178.537 207.375,178.483 206.568 L 178.385 205.101 178.240 206.813 " stroke="none" fill="#f4f4f4" fill-rule="evenodd"></path></g></svg>