<?xml version="1.0" standalone="no"?>
<!DOCTYPE svg PUBLIC "-//W3C//DTD SVG 20010904//EN"
 "http://www.w3.org/TR/2001/REC-SVG-20010904/DTD/svg10.dtd">
<svg version="1.0" xmlns="http://www.w3.org/2000/svg"
 width="512.000000pt" height="512.000000pt" viewBox="0 0 512.000000 512.000000"
 preserveAspectRatio="xMidYMid meet">

<g transform="translate(0.000000,512.000000) scale(0.100000,-0.100000)"
fill="#ffffff" stroke="none">
<path d="M4680 4725 l0 -255 60 0 60 0 0 135 0 134 40 12 c33 10 43 9 65 -5
25 -16 25 -18 25 -146 l0 -130 60 0 60 0 0 145 c0 162 -8 193 -60 220 -42 22
-99 18 -147 -10 l-43 -24 0 90 0 89 -60 0 -60 0 0 -255z"/>
<path d="M151 4956 c-79 -26 -127 -91 -118 -158 10 -75 61 -117 169 -139 77
-15 107 -29 114 -52 20 -62 -122 -78 -223 -24 -29 15 -55 27 -58 27 -3 0 -5
-26 -5 -59 l0 -58 58 -17 c68 -19 178 -21 233 -5 92 28 144 110 120 188 -16
54 -57 85 -138 106 -115 29 -138 39 -141 62 -8 56 118 71 206 25 24 -12 47
-22 52 -22 6 0 10 25 10 55 0 54 0 54 -37 65 -63 19 -193 22 -242 6z"/>
<path d="M570 4715 l0 -245 65 0 65 0 0 90 0 90 28 0 c23 0 38 -15 95 -90 l67
-90 76 0 76 0 -34 44 c-18 25 -53 70 -77 100 l-43 56 40 39 c86 83 60 210 -49
241 -18 6 -96 10 -171 10 l-138 0 0 -245z m260 135 c39 -39 11 -110 -44 -110
-13 0 -38 -3 -55 -6 l-31 -6 0 71 0 71 55 0 c42 0 60 -5 75 -20z"/>
<path d="M1410 4715 l0 -245 65 0 65 0 0 91 0 90 27 -3 c22 -2 43 -23 93 -90
l65 -87 78 0 78 -1 -44 58 c-25 31 -61 77 -80 101 l-35 44 43 41 c79 76 68
177 -25 224 -40 20 -59 22 -187 22 l-143 0 0 -245z m253 143 c9 -7 19 -25 22
-39 10 -41 -28 -76 -92 -83 l-53 -7 0 71 0 70 53 0 c29 0 61 -6 70 -12z"/>
<path d="M2065 4835 c-87 -31 -137 -125 -117 -222 15 -70 35 -98 95 -128 42
-20 65 -25 126 -24 42 0 94 6 116 13 39 11 40 13 43 60 4 54 8 53 -73 22 -52
-20 -99 -20 -140 -1 -26 13 -55 49 -55 70 0 3 61 5 135 5 l135 0 0 53 c0 71
-25 116 -80 145 -51 26 -124 29 -185 7z m122 -73 c6 -4 16 -20 22 -35 l11 -27
-80 0 c-87 0 -95 6 -55 45 24 25 76 34 102 17z"/>
<path d="M2527 4836 c-51 -19 -75 -42 -88 -86 -22 -72 24 -121 134 -144 79
-16 96 -28 77 -51 -19 -23 -116 -20 -165 5 -22 11 -43 20 -48 20 -4 0 -7 -21
-5 -47 3 -46 4 -48 43 -59 63 -19 173 -17 220 5 59 27 80 55 80 106 0 72 -30
93 -170 122 -42 9 -60 38 -33 54 24 15 98 10 140 -11 23 -11 43 -20 45 -20 2
0 3 22 3 49 l0 49 -50 11 c-68 15 -136 13 -183 -3z"/>
<path d="M2995 4838 c-80 -29 -125 -97 -125 -184 1 -91 45 -154 129 -182 43
-15 149 -15 207 -1 l44 11 0 50 c0 44 -2 49 -17 43 -91 -39 -134 -43 -188 -21
-31 13 -55 41 -55 65 0 7 46 11 136 11 l136 0 -4 60 c-5 63 -23 98 -70 133
-31 23 -147 33 -193 15z m127 -85 c10 -9 18 -24 18 -35 0 -16 -9 -18 -75 -18
-60 0 -75 3 -75 15 0 47 92 74 132 38z"/>
<path d="M3430 4842 c-33 -7 -35 -10 -38 -51 -3 -43 -3 -44 25 -37 15 4 55 10
88 13 50 4 64 2 84 -14 13 -11 21 -24 18 -30 -4 -5 -35 -13 -70 -16 -79 -7
-141 -31 -161 -62 -9 -14 -16 -45 -16 -71 0 -39 5 -51 34 -80 29 -29 41 -34
83 -34 29 0 65 8 88 20 47 24 45 24 45 5 0 -12 13 -15 61 -15 l61 0 -4 148
c-4 161 -12 186 -66 212 -30 15 -178 22 -232 12z m180 -242 c0 -48 -21 -63
-83 -58 -39 3 -42 5 -45 34 -2 19 3 36 13 44 17 14 93 30 108 23 4 -3 7 -22 7
-43z"/>
<path d="M4335 4835 c-81 -31 -115 -86 -115 -186 0 -84 27 -131 94 -164 56
-28 140 -33 207 -13 39 11 39 11 39 65 0 29 -2 53 -5 53 -2 0 -19 -9 -37 -20
-49 -29 -122 -27 -153 5 -20 19 -25 34 -25 75 0 44 5 56 29 81 36 35 88 39
144 9 20 -11 39 -20 42 -20 3 0 5 23 5 50 0 46 -3 52 -27 62 -45 18 -153 20
-198 3z"/>
<path d="M3870 4655 l0 -185 60 0 60 0 0 124 c0 141 -4 136 98 136 l52 0 0 55
c0 54 -1 55 -28 55 -16 0 -50 -11 -75 -24 l-47 -23 0 23 c0 23 -4 24 -60 24
l-60 0 0 -185z"/>
<path d="M80 2800 l0 -1500 79 0 78 0 7 112 c30 467 210 931 505 1301 l63 79
-46 56 c-89 109 -228 327 -292 459 -137 279 -234 671 -234 945 l0 48 -80 0
-80 0 0 -1500z"/>
<path d="M480 4241 c0 -168 64 -479 136 -662 47 -120 124 -274 181 -364 52
-82 174 -245 182 -245 3 0 47 35 96 76 323 272 726 453 1155 521 175 27 530
25 705 -5 439 -75 825 -254 1144 -531 l74 -65 40 45 c52 58 163 225 220 330
134 246 222 560 243 862 l7 97 -2092 0 -2091 0 0 -59z"/>
<path d="M4896 4208 c-4 -51 -11 -129 -17 -173 -51 -414 -231 -841 -486 -1158
-35 -43 -63 -81 -63 -85 0 -4 26 -38 57 -77 141 -174 288 -434 368 -649 72
-195 123 -440 140 -678 l7 -88 69 0 69 0 0 1500 0 1500 -69 0 -68 0 -7 -92z"/>
<path d="M1971 3264 c-187 -55 -383 -147 -557 -262 -82 -54 -264 -197 -264
-208 0 -9 66 -65 155 -133 96 -73 232 -159 330 -208 61 -31 288 -123 302 -123
5 0 -10 39 -34 88 -131 271 -82 595 122 816 28 31 46 56 41 55 -6 0 -49 -11
-95 -25z"/>
<path d="M3107 3239 c132 -138 198 -305 198 -504 0 -132 -20 -221 -75 -330
-21 -41 -37 -75 -36 -75 2 0 34 11 72 24 222 76 465 216 649 372 63 54 75 69
63 79 -132 122 -319 246 -503 336 -129 63 -300 127 -385 144 l-35 7 52 -53z"/>
<path d="M2505 3229 c-248 -29 -434 -241 -435 -494 0 -140 46 -250 147 -353
288 -292 787 -125 846 285 47 322 -229 600 -558 562z"/>
<path d="M927 2553 c-190 -236 -346 -572 -406 -873 -23 -117 -41 -260 -41
-332 l0 -48 2090 0 2090 0 0 24 c0 13 -5 70 -10 127 -39 400 -187 774 -432
1091 l-60 77 -77 -65 c-354 -301 -781 -488 -1246 -545 -145 -17 -426 -15 -570
5 -458 64 -888 258 -1217 548 l-67 58 -54 -67z"/>
<path d="M4920 1237 c-63 -16 -100 -67 -100 -138 0 -136 181 -189 256 -74 38
59 22 156 -32 192 -35 22 -85 31 -124 20z m86 -33 c100 -48 77 -196 -32 -211
-131 -17 -182 160 -61 212 42 18 52 18 93 -1z"/>
<path d="M4897 1173 c-4 -3 -7 -37 -7 -75 0 -52 3 -68 14 -68 8 0 16 12 18 27
4 38 25 40 45 4 10 -17 26 -31 36 -31 16 0 16 2 2 30 -14 27 -14 32 0 54 15
23 15 26 -4 45 -21 21 -89 30 -104 14z m81 -40 c-2 -12 -12 -18 -28 -18 -16 0
-26 6 -28 18 -3 13 3 17 28 17 25 0 31 -4 28 -17z"/>
<path d="M3110 1070 l0 -70 100 0 100 0 0 70 0 70 -100 0 -100 0 0 -70z"/>
<path d="M4350 740 l0 -400 95 0 95 0 0 98 c0 92 2 100 25 122 15 14 29 20 34
14 4 -5 41 -60 81 -122 l72 -112 109 0 108 0 -111 164 -111 165 94 113 c52 62
98 119 103 126 5 9 -16 12 -98 12 l-105 0 -98 -125 -98 -125 -3 235 -2 235
-95 0 -95 0 0 -400z"/>
<path d="M100 725 l0 -385 280 0 280 0 0 75 0 75 -180 0 -180 0 0 95 0 95 165
0 165 0 0 75 0 75 -165 0 -165 0 0 65 0 65 180 0 180 0 0 75 0 75 -280 0 -280
0 0 -385z"/>
<path d="M2390 725 l0 -385 280 0 280 0 0 75 0 75 -180 0 -180 0 0 310 0 310
-100 0 -100 0 0 -385z"/>
<path d="M1784 916 c-168 -53 -248 -251 -172 -428 26 -60 83 -111 157 -140 45
-17 78 -21 171 -22 108 0 141 5 223 36 26 10 27 13 27 84 0 41 -4 74 -9 74 -5
0 -32 -11 -59 -25 -100 -50 -203 -55 -283 -15 -33 17 -69 69 -69 99 0 8 66 11
216 11 l217 0 -6 78 c-3 42 -13 96 -22 120 -21 51 -90 114 -143 130 -51 16
-196 14 -248 -2z m175 -110 c28 -15 51 -53 51 -86 0 -19 -8 -20 -120 -20 -76
0 -120 4 -120 10 0 6 6 25 14 43 24 58 113 85 175 53z"/>
<path d="M3822 915 c-18 -8 -46 -24 -62 -35 -37 -26 -40 -26 -40 10 l0 30 -90
0 -90 0 0 -290 0 -290 90 0 90 0 0 206 0 205 35 15 c49 20 118 18 146 -5 24
-19 24 -23 27 -220 l3 -201 95 0 94 0 0 213 c0 116 -5 229 -10 249 -14 48 -55
97 -97 114 -42 18 -149 17 -191 -1z"/>
<path d="M810 911 c0 -5 50 -135 110 -289 l110 -279 -45 -108 c-25 -59 -45
-110 -45 -112 0 -2 45 -2 101 -1 l100 3 155 379 c84 209 156 388 160 398 5 16
-3 18 -89 18 l-95 0 -63 -180 c-35 -99 -66 -180 -70 -180 -3 0 -23 46 -44 103
-21 56 -51 137 -67 180 l-30 77 -94 0 c-52 0 -94 -4 -94 -9z"/>
<path d="M3120 630 l0 -290 90 0 90 0 0 290 0 290 -90 0 -90 0 0 -290z"/>
</g>
</svg>
