<svg id="svg" version="1.1" xmlns="http://www.w3.org/2000/svg" xmlns:xlink="http://www.w3.org/1999/xlink" width="400" height="398.3870967741936" viewBox="0, 0, 400,398.3870967741936"><g id="svgg"><path id="path0" d="M0.000 199.203 L 0.000 398.406 200.000 398.406 L 400.000 398.406 400.000 199.203 L 400.000 0.000 200.000 0.000 L 0.000 0.000 0.000 199.203 M353.386 17.161 C 359.124 17.720,366.595 19.994,369.277 21.999 C 369.799 22.390,370.430 22.709,370.678 22.709 C 371.484 22.709,379.008 27.852,381.014 29.774 C 384.457 33.073,386.516 37.391,387.354 43.069 C 387.985 47.338,387.867 355.006,387.232 361.828 C 386.022 374.826,378.350 383.174,365.339 385.652 C 356.591 387.318,51.396 387.538,44.422 385.884 C 32.042 382.948,24.635 374.696,23.117 362.151 C 22.944 360.727,22.737 289.104,22.657 202.988 L 22.510 46.414 23.569 42.430 C 28.008 25.730,37.397 19.971,61.155 19.375 C 68.454 19.193,70.917 18.987,73.261 18.364 C 78.652 16.931,80.613 16.920,84.561 18.302 C 89.214 19.931,93.785 19.988,99.944 18.493 C 108.868 16.328,102.964 16.414,230.677 16.590 C 307.164 16.696,350.687 16.899,353.386 17.161 M198.969 47.060 C 195.882 47.217,192.655 47.525,191.798 47.744 C 190.940 47.964,189.334 48.259,188.227 48.401 C 182.319 49.157,181.329 51.288,177.494 71.514 C 174.577 86.895,170.069 91.819,157.570 93.275 C 155.817 93.479,152.874 93.854,151.030 94.108 C 140.914 95.505,130.892 92.647,122.438 85.954 C 117.836 82.311,115.217 80.622,113.665 80.294 C 112.103 79.964,108.898 80.406,108.247 81.041 C 107.984 81.297,107.373 81.780,106.890 82.113 C 106.050 82.693,94.040 93.528,93.625 94.080 C 93.516 94.226,91.345 96.559,88.801 99.264 C 78.364 110.366,78.262 111.026,85.493 120.762 C 86.570 122.211,88.213 124.631,89.145 126.140 C 90.078 127.650,92.538 130.857,94.613 133.267 C 103.495 143.585,104.606 151.603,98.811 163.546 C 95.440 170.491,89.789 174.688,81.949 176.068 C 80.676 176.292,79.508 176.554,79.352 176.651 C 79.196 176.747,77.190 177.033,74.893 177.285 C 72.596 177.538,69.821 177.983,68.725 178.274 C 67.629 178.565,65.653 178.915,64.333 179.052 C 49.922 180.552,48.917 181.747,48.211 198.207 C 47.052 225.229,48.614 228.560,63.546 230.904 C 67.305 231.494,71.609 232.205,79.880 233.600 C 81.853 233.933,84.133 234.487,84.947 234.832 C 85.762 235.176,86.712 235.458,87.058 235.458 C 87.403 235.458,89.068 236.259,90.756 237.237 C 103.906 244.861,106.112 259.140,96.298 273.108 C 94.901 275.095,90.201 281.824,84.256 290.349 C 79.189 297.613,79.128 299.055,83.670 304.148 C 84.434 305.005,86.584 307.424,88.446 309.522 C 100.111 322.663,108.124 329.283,112.367 329.283 C 115.348 329.283,113.951 330.024,125.498 322.317 C 147.688 307.506,146.869 307.989,149.801 307.981 C 154.711 307.967,161.558 313.097,172.151 324.725 C 175.556 328.462,177.304 331.770,177.285 334.440 C 177.282 334.890,177.629 336.424,178.057 337.849 C 179.242 341.796,180.387 347.296,180.668 350.398 C 181.491 359.455,183.291 360.967,194.422 361.942 C 198.257 362.277,202.057 362.623,202.868 362.710 C 205.984 363.042,219.726 362.233,222.281 361.566 C 228.334 359.987,229.724 357.826,231.257 347.610 C 233.243 334.377,233.952 331.890,237.611 325.299 C 244.265 313.316,259.191 305.013,266.534 309.209 C 268.823 310.517,275.610 315.032,278.592 317.231 C 300.039 333.041,298.656 333.036,314.741 317.353 C 319.074 313.128,326.039 305.736,327.899 303.386 C 331.840 298.410,331.437 296.896,322.906 284.661 C 320.614 281.375,318.064 277.701,317.238 276.497 C 316.413 275.293,315.462 274.033,315.127 273.696 C 310.568 269.115,308.221 256.322,310.668 249.401 C 314.372 238.926,320.273 234.538,331.873 233.635 C 338.829 233.093,343.691 232.377,347.594 231.320 C 348.900 230.967,350.423 230.677,350.979 230.677 C 353.140 230.677,358.168 228.645,359.565 227.206 C 364.341 222.289,364.601 189.117,359.913 182.970 C 358.598 181.247,354.951 179.717,350.598 179.064 C 349.612 178.916,348.177 178.537,347.410 178.221 C 346.613 177.892,342.860 177.406,338.645 177.086 C 331.183 176.518,327.469 175.863,325.298 174.731 C 324.641 174.389,323.924 174.106,323.705 174.102 C 320.371 174.046,313.551 165.019,310.764 156.972 C 307.840 148.529,308.423 145.015,314.152 136.549 C 318.100 130.716,318.578 130.035,321.347 126.295 C 332.392 111.378,332.407 111.198,323.450 101.299 C 310.364 86.839,303.020 80.876,298.297 80.876 C 296.476 80.876,292.114 83.131,287.450 86.483 C 283.592 89.256,275.905 94.409,273.506 95.831 C 271.763 96.865,271.137 97.011,268.498 97.002 C 265.211 96.991,265.054 96.915,261.025 93.392 C 257.279 90.116,254.865 88.433,251.474 86.735 C 238.735 80.354,232.802 71.973,230.894 57.662 C 230.108 51.762,227.759 49.041,222.908 48.408 C 221.813 48.265,219.392 47.902,217.530 47.601 C 213.215 46.903,206.126 46.697,198.969 47.060 M215.737 103.581 C 219.498 104.175,224.253 105.398,227.291 106.553 C 228.825 107.136,230.618 107.780,231.275 107.984 C 233.302 108.614,245.020 114.863,248.805 117.333 C 265.495 128.224,279.150 148.097,284.666 169.522 C 285.230 171.713,286.028 174.582,286.439 175.896 C 287.395 178.959,288.359 183.603,288.672 186.653 C 288.806 187.968,289.259 190.775,289.677 192.891 C 290.522 197.160,290.749 211.742,290.049 216.733 C 289.849 218.157,289.405 221.384,289.062 223.904 C 288.719 226.424,288.242 229.024,288.001 229.681 C 287.760 230.339,287.332 231.863,287.050 233.068 C 284.681 243.187,279.778 255.284,275.101 262.550 C 274.184 263.974,272.778 266.174,271.975 267.439 C 265.704 277.326,254.126 289.584,246.188 294.743 C 241.515 297.779,230.777 303.183,229.403 303.190 C 229.118 303.191,228.398 303.446,227.804 303.756 C 227.209 304.066,225.685 304.533,224.417 304.794 C 223.149 305.055,221.810 305.428,221.441 305.622 C 217.335 307.787,193.886 307.818,189.789 305.663 C 189.379 305.448,188.237 305.153,187.251 305.008 C 186.265 304.863,184.651 304.413,183.665 304.008 C 182.679 303.603,181.066 302.955,180.080 302.568 C 167.478 297.621,157.282 290.257,147.687 279.174 C 144.846 275.892,137.052 265.077,137.052 264.417 C 137.052 264.262,136.458 263.285,135.733 262.247 C 131.201 255.761,124.340 237.103,122.365 225.896 C 122.153 224.691,121.802 222.988,121.587 222.112 C 120.169 216.359,120.129 193.650,121.524 187.251 C 121.739 186.265,122.162 184.114,122.464 182.470 C 124.755 170.002,130.775 154.290,137.052 144.399 C 148.293 126.683,160.273 115.921,176.693 108.784 C 177.789 108.308,179.044 107.721,179.481 107.480 C 181.231 106.516,191.152 104.153,195.623 103.636 C 199.748 103.158,212.835 103.123,215.737 103.581 M199.602 111.196 C 187.349 112.181,175.623 121.503,169.336 135.259 C 167.125 140.098,164.840 147.079,164.317 150.598 C 164.171 151.584,163.898 152.682,163.711 153.038 C 163.524 153.394,163.182 155.815,162.950 158.417 C 162.718 161.019,162.345 163.827,162.120 164.657 C 161.706 166.187,160.919 175.838,160.116 189.243 C 159.217 204.228,160.336 235.352,162.170 246.414 C 162.606 249.044,162.959 251.554,162.954 251.992 C 162.946 252.782,163.872 256.373,165.369 261.355 C 165.797 262.779,166.144 264.180,166.141 264.468 C 166.132 265.320,169.056 272.342,171.359 277.001 C 179.314 293.089,197.030 300.937,215.647 296.620 C 231.146 293.026,244.113 275.462,246.831 254.382 C 246.972 253.287,247.325 251.404,247.614 250.199 C 247.904 248.994,248.253 246.663,248.389 245.020 C 248.526 243.376,248.893 240.329,249.206 238.247 C 251.095 225.652,251.243 170.795,249.404 164.741 C 249.204 164.084,248.850 161.753,248.617 159.562 C 248.383 157.371,247.941 154.771,247.634 153.785 C 247.327 152.799,246.954 151.098,246.806 150.005 C 246.658 148.913,246.300 147.562,246.012 147.003 C 245.723 146.445,245.357 145.277,245.199 144.409 C 244.878 142.641,242.437 136.349,240.389 132.010 C 237.413 125.706,226.788 114.741,223.654 114.741 C 223.492 114.741,222.630 114.393,221.739 113.967 C 217.039 111.720,207.672 110.548,199.602 111.196 M214.435 170.120 C 214.816 170.729,215.364 170.916,216.767 170.916 C 218.096 170.916,218.800 171.136,219.323 171.713 C 219.825 172.268,220.550 172.510,221.713 172.510 C 222.877 172.510,223.601 172.751,224.104 173.307 C 224.500 173.745,225.209 174.104,225.678 174.104 C 226.149 174.104,227.229 174.818,228.088 175.697 C 228.944 176.574,230.007 177.291,230.452 177.291 C 231.565 177.291,238.645 184.375,238.645 185.488 C 238.645 185.952,239.004 186.655,239.442 187.052 C 239.880 187.448,240.239 188.166,240.239 188.645 C 240.239 189.125,240.598 189.842,241.036 190.239 C 241.474 190.636,241.833 191.353,241.833 191.833 C 241.833 192.313,242.191 193.030,242.629 193.426 C 243.185 193.929,243.426 194.653,243.426 195.817 C 243.426 196.980,243.668 197.705,244.223 198.207 C 244.961 198.875,245.020 199.434,245.020 205.743 C 245.020 212.126,244.969 212.589,244.223 213.055 C 243.608 213.439,243.426 213.984,243.426 215.445 C 243.426 216.907,243.245 217.452,242.629 217.836 C 242.146 218.138,241.833 218.765,241.833 219.429 C 241.833 220.094,241.519 220.721,241.036 221.023 C 240.531 221.338,240.239 221.952,240.239 222.699 C 240.239 223.469,239.963 224.024,239.442 224.303 C 238.973 224.554,238.645 225.137,238.645 225.722 C 238.645 227.056,231.913 233.863,230.588 233.868 C 230.033 233.871,229.140 234.487,228.287 235.458 C 227.308 236.571,226.570 237.045,225.811 237.048 C 225.140 237.050,224.567 237.354,224.303 237.849 C 224.024 238.370,223.469 238.645,222.699 238.645 C 221.952 238.645,221.338 238.937,221.023 239.442 C 220.605 240.111,220.094 240.239,217.836 240.239 C 215.578 240.239,215.066 240.367,214.649 241.036 C 214.179 241.787,213.719 241.833,206.566 241.833 C 199.475 241.833,198.938 241.781,198.300 241.036 C 197.750 240.394,197.124 240.239,195.086 240.239 C 193.060 240.239,192.410 240.080,191.833 239.442 C 191.436 239.004,190.719 238.645,190.239 238.645 C 189.759 238.645,189.042 238.287,188.645 237.849 C 188.249 237.410,187.540 237.052,187.071 237.052 C 186.600 237.052,185.520 236.337,184.661 235.458 C 183.805 234.582,182.742 233.865,182.297 233.865 C 181.184 233.865,174.104 226.781,174.104 225.667 C 174.104 225.204,173.745 224.500,173.307 224.104 C 172.869 223.707,172.510 222.990,172.510 222.510 C 172.510 222.030,172.151 221.313,171.713 220.916 C 171.275 220.520,170.916 219.803,170.916 219.323 C 170.916 218.843,170.558 218.126,170.120 217.729 C 169.542 217.207,169.323 216.502,169.323 215.174 C 169.323 213.771,169.135 213.222,168.526 212.841 C 167.780 212.376,167.729 211.912,167.729 205.588 C 167.729 199.241,167.777 198.807,168.526 198.406 C 169.157 198.068,169.323 197.572,169.323 196.016 C 169.323 194.460,169.488 193.963,170.120 193.625 C 170.638 193.348,170.916 192.791,170.916 192.032 C 170.916 191.272,171.195 190.716,171.713 190.438 C 172.194 190.181,172.510 189.604,172.510 188.983 C 172.510 188.306,173.055 187.425,174.104 186.408 C 174.984 185.553,175.697 184.480,175.697 184.009 C 175.697 182.854,179.613 178.906,180.769 178.894 C 181.327 178.888,182.514 177.995,183.957 176.496 C 185.655 174.731,186.537 174.107,187.337 174.105 C 188.009 174.104,188.579 173.802,188.845 173.307 C 189.183 172.675,189.679 172.510,191.235 172.510 C 192.791 172.510,193.288 172.345,193.625 171.713 C 193.963 171.082,194.460 170.916,196.016 170.916 C 197.572 170.916,198.068 170.751,198.406 170.120 C 198.810 169.366,199.241 169.323,206.385 169.323 C 213.506 169.323,213.966 169.368,214.435 170.120 " stroke="none" fill="#060606" fill-rule="evenodd"></path><path id="path1" d="M108.167 16.946 C 105.976 17.231,102.276 17.928,99.944 18.493 C 93.785 19.988,89.214 19.931,84.561 18.302 C 80.613 16.920,78.652 16.931,73.261 18.364 C 70.917 18.987,68.454 19.193,61.155 19.375 C 37.397 19.971,28.008 25.730,23.569 42.430 L 22.510 46.414 22.657 202.988 C 22.737 289.104,22.944 360.727,23.117 362.151 C 24.635 374.696,32.042 382.948,44.422 385.884 C 51.396 387.538,356.591 387.318,365.339 385.652 C 378.350 383.174,386.022 374.826,387.232 361.828 C 387.867 355.006,387.985 47.338,387.354 43.069 C 386.516 37.391,384.457 33.073,381.014 29.774 C 379.008 27.852,371.484 22.709,370.678 22.709 C 370.430 22.709,369.799 22.390,369.277 21.999 C 366.595 19.994,359.124 17.720,353.386 17.161 C 346.521 16.493,113.219 16.288,108.167 16.946 M217.530 47.601 C 219.392 47.902,221.813 48.265,222.908 48.408 C 227.759 49.041,230.108 51.762,230.894 57.662 C 232.802 71.973,238.735 80.354,251.474 86.735 C 254.865 88.433,257.279 90.116,261.025 93.392 C 265.054 96.915,265.211 96.991,268.498 97.002 C 271.137 97.011,271.763 96.865,273.506 95.831 C 275.905 94.409,283.592 89.256,287.450 86.483 C 292.114 83.131,296.476 80.876,298.297 80.876 C 303.020 80.876,310.364 86.839,323.450 101.299 C 332.407 111.198,332.392 111.378,321.347 126.295 C 308.391 143.793,307.298 146.963,310.764 156.972 C 313.551 165.019,320.371 174.046,323.705 174.102 C 323.924 174.106,324.641 174.389,325.298 174.731 C 327.469 175.863,331.183 176.518,338.645 177.086 C 342.860 177.406,346.613 177.892,347.410 178.221 C 348.177 178.537,349.612 178.916,350.598 179.064 C 354.951 179.717,358.598 181.247,359.913 182.970 C 363.402 187.545,364.475 213.638,361.581 223.560 C 360.471 227.367,355.540 230.677,350.979 230.677 C 350.423 230.677,348.900 230.967,347.594 231.320 C 343.691 232.377,338.829 233.093,331.873 233.635 C 320.273 234.538,314.372 238.926,310.668 249.401 C 308.221 256.322,310.568 269.115,315.127 273.696 C 315.462 274.033,316.413 275.293,317.238 276.497 C 318.064 277.701,320.614 281.375,322.906 284.661 C 331.437 296.896,331.840 298.410,327.899 303.386 C 326.039 305.736,319.074 313.128,314.741 317.353 C 298.656 333.036,300.039 333.041,278.592 317.231 C 275.610 315.032,268.823 310.517,266.534 309.209 C 259.191 305.013,244.265 313.316,237.611 325.299 C 233.952 331.890,233.243 334.377,231.257 347.610 C 229.724 357.826,228.334 359.987,222.281 361.566 C 219.726 362.233,205.984 363.042,202.868 362.710 C 202.057 362.623,198.257 362.277,194.422 361.942 C 183.291 360.967,181.491 359.455,180.668 350.398 C 180.387 347.296,179.242 341.796,178.057 337.849 C 177.629 336.424,177.282 334.890,177.285 334.440 C 177.337 327.097,157.458 307.960,149.801 307.981 C 147.331 307.987,145.838 308.750,137.835 314.086 C 134.008 316.638,128.456 320.342,125.498 322.317 C 113.951 330.024,115.348 329.283,112.367 329.283 C 108.124 329.283,100.111 322.663,88.446 309.522 C 86.584 307.424,84.434 305.005,83.670 304.148 C 79.128 299.055,79.189 297.613,84.256 290.349 C 90.201 281.824,94.901 275.095,96.298 273.108 C 106.112 259.140,103.906 244.861,90.756 237.237 C 89.068 236.259,87.403 235.458,87.058 235.458 C 86.712 235.458,85.762 235.176,84.947 234.832 C 84.133 234.487,81.853 233.933,79.880 233.600 C 71.609 232.205,67.305 231.494,63.546 230.904 C 48.614 228.560,47.052 225.229,48.211 198.207 C 48.917 181.747,49.922 180.552,64.333 179.052 C 65.653 178.915,67.629 178.565,68.725 178.274 C 69.821 177.983,72.596 177.538,74.893 177.285 C 77.190 177.033,79.196 176.747,79.352 176.651 C 79.508 176.554,80.676 176.292,81.949 176.068 C 89.789 174.688,95.440 170.491,98.811 163.546 C 104.606 151.603,103.495 143.585,94.613 133.267 C 92.538 130.857,90.078 127.650,89.145 126.140 C 88.213 124.631,86.570 122.211,85.493 120.762 C 78.262 111.026,78.364 110.366,88.801 99.264 C 91.345 96.559,93.516 94.226,93.625 94.080 C 94.040 93.528,106.050 82.693,106.890 82.113 C 107.373 81.780,107.984 81.297,108.247 81.041 C 108.898 80.406,112.103 79.964,113.665 80.294 C 115.217 80.622,117.836 82.311,122.438 85.954 C 130.892 92.647,140.914 95.505,151.030 94.108 C 152.874 93.854,155.817 93.479,157.570 93.275 C 170.069 91.819,174.577 86.895,177.494 71.514 C 181.329 51.288,182.319 49.157,188.227 48.401 C 189.334 48.259,190.940 47.964,191.798 47.744 C 195.864 46.702,211.434 46.615,217.530 47.601 M195.623 103.636 C 191.152 104.153,181.231 106.516,179.481 107.480 C 179.044 107.721,177.789 108.308,176.693 108.784 C 160.273 115.921,148.293 126.683,137.052 144.399 C 130.775 154.290,124.755 170.002,122.464 182.470 C 122.162 184.114,121.739 186.265,121.524 187.251 C 120.129 193.650,120.169 216.359,121.587 222.112 C 121.802 222.988,122.153 224.691,122.365 225.896 C 124.340 237.103,131.201 255.761,135.733 262.247 C 136.458 263.285,137.052 264.262,137.052 264.417 C 137.052 265.077,144.846 275.892,147.687 279.174 C 157.282 290.257,167.478 297.621,180.080 302.568 C 181.066 302.955,182.679 303.603,183.665 304.008 C 184.651 304.413,186.265 304.863,187.251 305.008 C 188.237 305.153,189.379 305.448,189.789 305.663 C 193.886 307.818,217.335 307.787,221.441 305.622 C 221.810 305.428,223.149 305.055,224.417 304.794 C 225.685 304.533,227.209 304.066,227.804 303.756 C 228.398 303.446,229.118 303.191,229.403 303.190 C 230.777 303.183,241.515 297.779,246.188 294.743 C 254.126 289.584,265.704 277.326,271.975 267.439 C 272.778 266.174,274.184 263.974,275.101 262.550 C 279.778 255.284,284.681 243.187,287.050 233.068 C 287.332 231.863,287.760 230.339,288.001 229.681 C 288.242 229.024,288.719 226.424,289.062 223.904 C 289.405 221.384,289.849 218.157,290.049 216.733 C 290.749 211.742,290.522 197.160,289.677 192.891 C 289.259 190.775,288.806 187.968,288.672 186.653 C 288.359 183.603,287.395 178.959,286.439 175.896 C 286.028 174.582,285.230 171.713,284.666 169.522 C 279.150 148.097,265.495 128.224,248.805 117.333 C 245.020 114.863,233.302 108.614,231.275 107.984 C 230.618 107.780,228.825 107.136,227.291 106.553 C 219.196 103.475,206.841 102.337,195.623 103.636 M212.948 111.555 C 216.411 112.164,220.063 113.166,221.739 113.967 C 222.630 114.393,223.492 114.741,223.654 114.741 C 226.788 114.741,237.413 125.706,240.389 132.010 C 242.437 136.349,244.878 142.641,245.199 144.409 C 245.357 145.277,245.723 146.445,246.012 147.003 C 246.300 147.562,246.658 148.913,246.806 150.005 C 246.954 151.098,247.327 152.799,247.634 153.785 C 247.941 154.771,248.383 157.371,248.617 159.562 C 248.850 161.753,249.204 164.084,249.404 164.741 C 251.243 170.795,251.095 225.652,249.206 238.247 C 248.893 240.329,248.526 243.376,248.389 245.020 C 248.253 246.663,247.904 248.994,247.614 250.199 C 247.325 251.404,246.972 253.287,246.831 254.382 C 244.113 275.462,231.146 293.026,215.647 296.620 C 197.030 300.937,179.314 293.089,171.359 277.001 C 169.056 272.342,166.132 265.320,166.141 264.468 C 166.144 264.180,165.797 262.779,165.369 261.355 C 163.872 256.373,162.946 252.782,162.954 251.992 C 162.959 251.554,162.606 249.044,162.170 246.414 C 160.336 235.352,159.217 204.228,160.116 189.243 C 160.919 175.838,161.706 166.187,162.120 164.657 C 162.345 163.827,162.718 161.019,162.950 158.417 C 163.182 155.815,163.524 153.394,163.711 153.038 C 163.898 152.682,164.171 151.584,164.317 150.598 C 164.840 147.079,167.125 140.098,169.336 135.259 C 177.710 116.938,193.805 108.191,212.948 111.555 M198.406 170.120 C 198.068 170.751,197.572 170.916,196.016 170.916 C 194.460 170.916,193.963 171.082,193.625 171.713 C 193.288 172.345,192.791 172.510,191.235 172.510 C 189.679 172.510,189.183 172.675,188.845 173.307 C 188.579 173.802,188.009 174.104,187.337 174.105 C 186.537 174.107,185.655 174.731,183.957 176.496 C 182.514 177.995,181.327 178.888,180.769 178.894 C 179.613 178.906,175.697 182.854,175.697 184.009 C 175.697 184.480,174.984 185.553,174.104 186.408 C 173.055 187.425,172.510 188.306,172.510 188.983 C 172.510 189.604,172.194 190.181,171.713 190.438 C 171.195 190.716,170.916 191.272,170.916 192.032 C 170.916 192.791,170.638 193.348,170.120 193.625 C 169.488 193.963,169.323 194.460,169.323 196.016 C 169.323 197.572,169.157 198.068,168.526 198.406 C 167.777 198.807,167.729 199.241,167.729 205.588 C 167.729 211.912,167.780 212.376,168.526 212.841 C 169.135 213.222,169.323 213.771,169.323 215.174 C 169.323 216.502,169.542 217.207,170.120 217.729 C 170.558 218.126,170.916 218.843,170.916 219.323 C 170.916 219.803,171.275 220.520,171.713 220.916 C 172.151 221.313,172.510 222.030,172.510 222.510 C 172.510 222.990,172.869 223.707,173.307 224.104 C 173.745 224.500,174.104 225.204,174.104 225.667 C 174.104 226.781,181.184 233.865,182.297 233.865 C 182.742 233.865,183.805 234.582,184.661 235.458 C 185.520 236.337,186.600 237.052,187.071 237.052 C 187.540 237.052,188.249 237.410,188.645 237.849 C 189.042 238.287,189.759 238.645,190.239 238.645 C 190.719 238.645,191.436 239.004,191.833 239.442 C 192.410 240.080,193.060 240.239,195.086 240.239 C 197.124 240.239,197.750 240.394,198.300 241.036 C 198.938 241.781,199.475 241.833,206.566 241.833 C 213.719 241.833,214.179 241.787,214.649 241.036 C 215.066 240.367,215.578 240.239,217.836 240.239 C 220.094 240.239,220.605 240.111,221.023 239.442 C 221.338 238.937,221.952 238.645,222.699 238.645 C 223.469 238.645,224.024 238.370,224.303 237.849 C 224.567 237.354,225.140 237.050,225.811 237.048 C 226.570 237.045,227.308 236.571,228.287 235.458 C 229.140 234.487,230.033 233.871,230.588 233.868 C 231.913 233.863,238.645 227.056,238.645 225.722 C 238.645 225.137,238.973 224.554,239.442 224.303 C 239.963 224.024,240.239 223.469,240.239 222.699 C 240.239 221.952,240.531 221.338,241.036 221.023 C 241.519 220.721,241.833 220.094,241.833 219.429 C 241.833 218.765,242.146 218.138,242.629 217.836 C 243.245 217.452,243.426 216.907,243.426 215.445 C 243.426 213.984,243.608 213.439,244.223 213.055 C 244.969 212.589,245.020 212.126,245.020 205.743 C 245.020 199.434,244.961 198.875,244.223 198.207 C 243.668 197.705,243.426 196.980,243.426 195.817 C 243.426 194.653,243.185 193.929,242.629 193.426 C 242.191 193.030,241.833 192.313,241.833 191.833 C 241.833 191.353,241.474 190.636,241.036 190.239 C 240.598 189.842,240.239 189.125,240.239 188.645 C 240.239 188.166,239.880 187.448,239.442 187.052 C 239.004 186.655,238.645 185.952,238.645 185.488 C 238.645 184.375,231.565 177.291,230.452 177.291 C 230.007 177.291,228.944 176.574,228.088 175.697 C 227.229 174.818,226.149 174.104,225.678 174.104 C 225.209 174.104,224.500 173.745,224.104 173.307 C 223.601 172.751,222.877 172.510,221.713 172.510 C 220.550 172.510,219.825 172.268,219.323 171.713 C 218.800 171.136,218.096 170.916,216.767 170.916 C 215.364 170.916,214.816 170.729,214.435 170.120 C 213.966 169.368,213.506 169.323,206.385 169.323 C 199.241 169.323,198.810 169.366,198.406 170.120 " stroke="none" fill="#fbfbfb" fill-rule="evenodd"></path></g></svg>